<?xml version="1.0" encoding="UTF-8" standalone="no"?>
<svg
   height="24px"
   viewBox="0 -960 960 960"
   width="24px"
   fill="#e3e3e3"
   version="1.1"
   id="svg4"
   sodipodi:docname="add_circle.svg"
   inkscape:version="1.2.2 (b0a8486541, 2022-12-01)"
   xmlns:inkscape="http://www.inkscape.org/namespaces/inkscape"
   xmlns:sodipodi="http://sodipodi.sourceforge.net/DTD/sodipodi-0.dtd"
   xmlns="http://www.w3.org/2000/svg"
   xmlns:svg="http://www.w3.org/2000/svg">
  <defs
     id="defs8" />
  <sodipodi:namedview
     id="namedview6"
     pagecolor="#ffffff"
     bordercolor="#000000"
     borderopacity="0.25"
     inkscape:showpageshadow="2"
     inkscape:pageopacity="0.0"
     inkscape:pagecheckerboard="0"
     inkscape:deskcolor="#d1d1d1"
     showgrid="false"
     inkscape:zoom="32.708333"
     inkscape:cx="12.015287"
     inkscape:cy="12.030573"
     inkscape:window-width="1854"
     inkscape:window-height="1011"
     inkscape:window-x="0"
     inkscape:window-y="0"
     inkscape:window-maximized="1"
     inkscape:current-layer="svg4" />
  <path
     d="M466-306h28v-160h160v-28H494v-160h-28v160H306v28h160v160Zm14.17 174q-72.17 0-135.73-27.39-63.56-27.39-110.57-74.35-47.02-46.96-74.44-110.43Q132-407.65 132-479.83q0-72.17 27.39-135.73 27.39-63.56 74.35-110.57 46.96-47.02 110.43-74.44Q407.65-828 479.83-828q72.17 0 135.73 27.39 63.56 27.39 110.57 74.35 47.02 46.96 74.44 110.43Q828-552.35 828-480.17q0 72.17-27.39 135.73-27.39 63.56-74.35 110.57-46.96 47.02-110.43 74.44Q552.35-132 480.17-132Zm-.17-28q134 0 227-93t93-227q0-134-93-227t-227-93q-134 0-227 93t-93 227q0 134 93 227t227 93Zm0-320Z"
     id="path2" />
  <path
     style="fill:#4d4d4d;stroke-width:0.0305732"
     d="M 11.174522,20.650904 C 8.2155831,20.352198 5.6253663,18.596966 4.2877559,15.984162 3.9399495,15.304779 3.7432898,14.793927 3.5767306,14.137171 3.1246286,12.354497 3.2654025,10.367779 3.9615584,8.7061617 4.8628249,6.5549769 6.4977817,4.9032966 8.62577,3.9942413 9.6185167,3.5701499 10.585425,3.3609064 11.709554,3.3268959 c 1.144013,-0.034612 2.18063,0.1203416 3.164331,0.4730047 1.815682,0.6509333 3.34897,1.851704 4.387905,3.4363195 0.255685,0.3899795 0.601443,1.0443152 0.780544,1.4771557 0.750058,1.8126982 0.847048,3.9145892 0.268697,5.8230112 -0.203494,0.67148 -0.570739,1.467449 -0.969816,2.101984 -1.336866,2.125623 -3.553183,3.574584 -6.052113,3.956688 -0.462198,0.07067 -1.655509,0.102188 -2.11458,0.05585 z m 2.003452,-0.712605 c 1.759763,-0.249273 3.22518,-0.983038 4.494952,-2.250718 0.670477,-0.669371 1.151705,-1.332309 1.54312,-2.125798 0.701346,-1.421786 0.951429,-3.156588 0.701638,-4.867194 C 19.72161,9.3518479 19.160962,8.0747618 18.29002,6.9869757 18.001567,6.6267045 17.376064,5.9988032 17.029299,5.7214214 15.867158,4.7918075 14.619065,4.261788 13.08535,4.0465704 c -0.389063,-0.054595 -1.781637,-0.054595 -2.1707,0 C 9.3809839,4.2617811 8.1365176,4.7901448 6.9707006,5.7210549 6.6049978,6.0130704 5.9310879,6.6986058 5.6355571,7.0792311 4.4359367,8.6242673 3.8949624,10.427288 4.0070224,12.506998 c 0.1093909,2.030174 0.8749289,3.739911 2.3196158,5.180583 0.4500694,0.448818 0.7607764,0.703394 1.2861007,1.053758 0.9975118,0.665289 2.1537966,1.078116 3.4242041,1.222537 0.477684,0.0543 1.678367,0.03996 2.141031,-0.02558 z"
     id="path129"
     transform="matrix(40,0,0,40,0,-960)" />
  <path
     style="fill:#4d4d4d;stroke-width:0.0305732"
     d="M 11.648408,14.338854 V 12.336306 H 9.6611465 7.6738854 V 12 11.663694 H 9.6611465 11.648408 V 9.6611465 7.6585987 H 12 12.351592 v 2.0025478 2.0025475 h 1.987262 1.987261 V 12 12.336306 h -1.987261 -1.987262 v 2.002548 2.002547 H 12 11.648408 Z"
     id="path131"
     transform="matrix(40,0,0,40,0,-960)" />
</svg>
