<?xml version="1.0" encoding="UTF-8" standalone="no"?>
<!-- Uploaded to: SVG Repo, www.svgrepo.com, Generator: SVG Repo Mixer Tools -->

<svg
   width="800px"
   height="800px"
   viewBox="0 0 24 24"
   fill="none"
   version="1.1"
   id="svg12"
   sodipodi:docname="branch.svg"
   inkscape:version="1.2.2 (b0a8486541, 2022-12-01)"
   xmlns:inkscape="http://www.inkscape.org/namespaces/inkscape"
   xmlns:sodipodi="http://sodipodi.sourceforge.net/DTD/sodipodi-0.dtd"
   xmlns="http://www.w3.org/2000/svg"
   xmlns:svg="http://www.w3.org/2000/svg">
  <defs
     id="defs16" />
  <sodipodi:namedview
     id="namedview14"
     pagecolor="#ffffff"
     bordercolor="#000000"
     borderopacity="0.25"
     inkscape:showpageshadow="2"
     inkscape:pageopacity="0.0"
     inkscape:pagecheckerboard="0"
     inkscape:deskcolor="#d1d1d1"
     showgrid="false"
     inkscape:zoom="0.98125"
     inkscape:cx="399.49045"
     inkscape:cy="403.05732"
     inkscape:window-width="1854"
     inkscape:window-height="1011"
     inkscape:window-x="0"
     inkscape:window-y="0"
     inkscape:window-maximized="1"
     inkscape:current-layer="svg12" />
  <path
     d="M3 6C3 7.65685 4.34315 9 6 9C7.65685 9 9 7.65685 9 6C9 4.34315 7.65685 3 6 3C4.34315 3 3 4.34315 3 6Z"
     stroke="#323232"
     stroke-width="2"
     id="path2" />
  <path
     d="M3 18C3 19.6569 4.34315 21 6 21C7.65685 21 9 19.6569 9 18C9 16.3431 7.65685 15 6 15C4.34315 15 3 16.3431 3 18Z"
     stroke="#323232"
     stroke-width="2"
     id="path4" />
  <path
     d="M15 6C15 7.65685 16.3431 9 18 9C19.6569 9 21 7.65685 21 6C21 4.34315 19.6569 3 18 3C16.3431 3 15 4.34315 15 6Z"
     stroke="#323232"
     stroke-width="2"
     id="path6" />
  <path
     d="M6 15V9"
     stroke="#323232"
     stroke-width="2"
     stroke-linecap="round"
     stroke-linejoin="round"
     id="path8" />
  <path
     d="M18 9V12.3242C18 16.9982 16.9424 18 12.008 18H9"
     stroke="#323232"
     stroke-width="2"
     stroke-linecap="round"
     id="path10" />
  <path
     style="fill:#000080;stroke-width:1.01911"
     d="m 193.63057,265.84726 c -23.71582,-3.46269 -42.55808,-16.39922 -52.46854,-36.02334 -13.48052,-26.69336 -7.63344,-58.20699 14.57569,-78.55762 25.8724,-23.70735 65.87172,-22.74221 90.80496,2.19102 20.25613,20.25613 25.13971,50.51011 12.28961,76.1344 -9.31534,18.57563 -27.07071,31.72684 -47.87688,35.46189 -7.44768,1.33697 -12.13341,1.55163 -17.32484,0.79365 z"
     id="path584"
     transform="scale(0.03)" />
  <path
     style="fill:#ff0000;stroke-width:1.01911"
     d="m 588.53503,265.06193 c -45.49271,-8.72908 -68.59878,-59.03635 -45.2886,-98.60377 17.57064,-29.82495 55.28233,-40.84554 86.42743,-25.25693 14.33344,7.17411 26.44944,20.63437 32.10287,35.66464 12.20696,32.45351 -2.75781,68.44883 -34.51558,83.02165 -12.57272,5.7693 -26.1625,7.5851 -38.72612,5.17441 z"
     id="path655"
     transform="scale(0.03)" />
  <path
     style="fill:#ffff00;stroke-width:1.01911"
     d="m 183.65914,663.99742 c -36.82079,-9.98121 -58.39236,-49.07779 -46.49497,-84.26808 10.24233,-30.29494 40.72016,-49.65712 71.15895,-45.20638 47.33257,6.92094 72.42074,58.22184 48.42413,99.01888 -7.75482,13.18411 -21.82533,24.48162 -36.61986,29.40287 -9.74857,3.24275 -26.59515,3.72906 -36.46825,1.05271 z"
     id="path726"
     transform="scale(0.03)" />
  <path
     style="fill:#808080;stroke-width:1.01911"
     d="m 187.52491,732.15908 c -70.46677,-6.95151 -123.41327,-68.03686 -119.97209,-138.414 2.326483,-47.57999 29.749827,-90.04776 72.06501,-111.59982 5.88535,-2.99753 14.48408,-6.69319 19.10828,-8.21256 l 8.40765,-2.7625 V 400 328.8298 l -8.40765,-2.7765 C 113.61203,311.15502 79.916874,273.16806 69.739643,225.73248 64.392897,200.81156 68.282856,168.38407 79.48724,144.47454 108.49332,82.577174 178.91436,52.502516 243.05732,74.618789 c 45.0364,15.528395 77.3756,52.779511 87.22713,100.475821 2.6511,12.83537 2.88532,34.54055 0.51443,47.67249 -5.52843,30.62093 -22.62436,59.90113 -46.46767,79.58516 -12.81872,10.5826 -31.1065,20.38829 -46.21705,24.78105 l -5.75747,1.67374 v 71.166 71.16601 l 7.38853,2.22702 c 20.68181,6.23384 45.32106,22.08947 58.97942,37.95392 12.27665,14.25957 23.79969,34.46983 27.98438,49.08182 l 1.92794,6.73194 48.42038,-0.0148 c 77.65617,-0.0237 106.59082,-2.55022 134.19504,-11.71749 13.69612,-4.54844 20.83903,-8.67806 28.98566,-16.75783 14.28518,-14.16793 21.84309,-37.87594 25.35519,-79.53536 0.59068,-7.00637 1.36534,-39.15646 1.72148,-71.44466 l 0.64752,-58.70581 -7.42461,-2.25515 c -27.66064,-8.40169 -54.58369,-28.57832 -70.8177,-53.07211 -14.84993,-22.40549 -22.04156,-46.2384 -22.14131,-73.37579 -0.13346,-36.30974 12.93166,-67.78914 38.91304,-93.75796 25.74418,-25.731755 57.46178,-38.994856 93.25357,-38.995128 46.57252,-3.53e-4 88.02115,23.010279 112.93845,62.698928 31.9495,50.88964 24.97434,117.32349 -16.95253,161.46157 -14.0508,14.79183 -34.95014,27.99566 -54.45725,34.40511 l -8.40765,2.7625 v 51.77778 c 0,28.47778 -0.47354,59.96879 -1.05231,69.98001 -3.89454,67.36534 -16.82551,105.72359 -45.31711,134.42815 -25.18387,25.37208 -58.30425,38.29678 -115.15924,44.93903 -11.04121,1.28993 -28.75371,1.80757 -78.32917,2.28916 l -64.06165,0.62231 -3.82564,10.87416 c -6.84022,19.44293 -16.26451,34.37621 -31.10838,49.29286 -11.27837,11.33367 -19.12582,17.2488 -32.10191,24.19727 -21.84516,11.69771 -49.9535,17.33879 -74.38592,14.92855 z m 28.92403,-67.16239 c 12.2126,-3.12346 21.28856,-8.37745 30.7746,-17.81516 14.25856,-14.1859 20.56903,-30.63338 19.53401,-50.91303 -0.90102,-17.65417 -6.89887,-31.07246 -19.62379,-43.90205 -12.63131,-12.73519 -28.33138,-19.16136 -46.87898,-19.18796 -19.54788,-0.028 -33.52531,5.74337 -47.46221,19.59757 -13.82698,13.74493 -19.64227,27.82168 -19.61408,47.47872 0.017,11.85533 1.92522,20.08799 6.98493,30.13523 14.02439,27.84873 45.99725,42.35311 76.28552,34.60668 z m 1.13068,-400.16879 c 15.19732,-3.8882 32.11756,-16.60495 40.07214,-30.117 8.4349,-14.32797 11.44882,-33.09646 7.88621,-49.1097 -5.59782,-25.16114 -25.97803,-45.54135 -51.13917,-51.13917 -16.01457,-3.5629 -34.80075,-0.54558 -49.10049,7.88621 -9.07847,5.3531 -19.44848,16.34573 -24.34304,25.80463 -5.77847,11.16706 -7.75903,19.21288 -7.77678,31.59235 -0.0276,19.27357 5.76712,33.52635 19.07827,46.92487 17.92818,18.04586 40.85321,24.41834 65.32286,18.15781 z m 399.82757,0.0542 c 11.06952,-2.79779 20.35441,-8.3298 29.74976,-17.72517 13.89593,-13.89592 19.69258,-27.87179 19.66456,-47.41173 -0.0266,-18.5476 -6.45277,-34.24767 -19.18796,-46.87898 -12.82959,-12.72492 -26.24788,-18.72277 -43.90205,-19.62379 -20.25813,-1.03392 -36.68414,5.26312 -50.95504,19.53401 -14.27089,14.2709 -20.56793,30.69691 -19.53401,50.95504 0.90102,17.65417 6.89887,31.07246 19.62379,43.90205 16.61069,16.74731 40.87141,23.23099 64.54095,17.24857 z"
     id="path946"
     transform="scale(0.03)" />
</svg>
