<?xml version="1.0" encoding="UTF-8" standalone="no"?>
<svg
   height="24px"
   viewBox="0 -960 960 960"
   width="24px"
   fill="#e3e3e3"
   version="1.1"
   id="svg4"
   sodipodi:docname="close.svg"
   inkscape:version="1.2.2 (b0a8486541, 2022-12-01)"
   xmlns:inkscape="http://www.inkscape.org/namespaces/inkscape"
   xmlns:sodipodi="http://sodipodi.sourceforge.net/DTD/sodipodi-0.dtd"
   xmlns="http://www.w3.org/2000/svg"
   xmlns:svg="http://www.w3.org/2000/svg">
  <defs
     id="defs8" />
  <sodipodi:namedview
     id="namedview6"
     pagecolor="#ffffff"
     bordercolor="#000000"
     borderopacity="0.25"
     inkscape:showpageshadow="2"
     inkscape:pageopacity="0.0"
     inkscape:pagecheckerboard="0"
     inkscape:deskcolor="#d1d1d1"
     showgrid="false"
     inkscape:zoom="32.708333"
     inkscape:cx="12.015287"
     inkscape:cy="12.030573"
     inkscape:window-width="1854"
     inkscape:window-height="1011"
     inkscape:window-x="0"
     inkscape:window-y="0"
     inkscape:window-maximized="1"
     inkscape:current-layer="svg4" />
  <path
     d="m256-236-20-20 224-224-224-224 20-20 224 224 224-224 20 20-224 224 224 224-20 20-224-224-224 224Z"
     id="path2" />
  <path
     style="fill:#4d4d4d;stroke-width:0.0305732"
     d="M 6.1605099,17.839491 5.9167054,17.594248 8.7137041,14.797124 11.510703,12 8.7137041,9.2028761 5.9167054,6.4057521 6.1605099,6.1605092 6.4043144,5.9152664 9.2022194,8.7130475 12.000125,11.510829 14.797368,8.7134606 17.59461,5.9160925 17.839196,6.1606785 18.083782,6.4052645 15.28654,9.2026322 12.489297,12 l 2.797243,2.797368 2.797242,2.797367 -0.244586,0.244586 -0.244586,0.244586 -2.797242,-2.797367 -2.797243,-2.797369 -2.7979056,2.797782 -2.797905,2.797781 z"
     id="path205"
     transform="matrix(40,0,0,40,0,-960)" />
</svg>
