<?xml version="1.0" encoding="UTF-8" standalone="no"?>
<svg
   height="24px"
   viewBox="0 -960 960 960"
   width="24px"
   fill="#e3e3e3"
   version="1.1"
   id="svg141"
   sodipodi:docname="cloud_queue.svg"
   inkscape:version="1.2.2 (b0a8486541, 2022-12-01)"
   xmlns:inkscape="http://www.inkscape.org/namespaces/inkscape"
   xmlns:sodipodi="http://sodipodi.sourceforge.net/DTD/sodipodi-0.dtd"
   xmlns="http://www.w3.org/2000/svg"
   xmlns:svg="http://www.w3.org/2000/svg">
  <defs
     id="defs145" />
  <sodipodi:namedview
     id="namedview143"
     pagecolor="#ffffff"
     bordercolor="#000000"
     borderopacity="0.25"
     inkscape:showpageshadow="2"
     inkscape:pageopacity="0.0"
     inkscape:pagecheckerboard="0"
     inkscape:deskcolor="#d1d1d1"
     showgrid="false"
     inkscape:zoom="32.708333"
     inkscape:cx="12.015287"
     inkscape:cy="12.030573"
     inkscape:window-width="1854"
     inkscape:window-height="1011"
     inkscape:window-x="0"
     inkscape:window-y="0"
     inkscape:window-maximized="1"
     inkscape:current-layer="svg141" />
  <path
     d="M260-212q-70 0-119-48.77Q92-309.55 92-380q0-69 49.5-118.5T254-548q10-86 74.5-143T480-748q95.27 0 161.64 66.36Q708-615.27 708-520v52h32q54 0 91 37t37 91q0 54-36 91t-90 37H526q-26 0-43-17t-17-43v-240l-90 90-20-19 124-124 124 124-20 19-90-90v240q0 12 10 22t22 10h214q42 0 71-29t29-71q0-42-29-71t-71-29h-60v-80q0-83-58.5-141.5T480-720q-83 0-141.5 58.5T280-520h-22q-55 0-96.5 41T120-380q0 58 41 99t99 41h100v28H260Zm220-254Z"
     id="path139" />
  <path
     style="fill:#4d4d4d;stroke-width:0.0305732"
     d="M 6.1605096,18.674986 C 6.0932484,18.669335 5.901294,18.642817 5.7339439,18.616058 4.2812649,18.383777 2.9902768,17.267743 2.5225588,15.83988 2.3647656,15.358164 2.3130306,14.953335 2.3327458,14.354579 2.3559028,13.65129 2.4606292,13.215058 2.7393764,12.66078 3.0266551,12.089537 3.5153949,11.516014 4.0726046,11.096274 4.699153,10.624302 5.5384705,10.318471 6.2071964,10.318471 c 0.1488386,0 0.1493216,-3.3e-4 0.1676478,-0.114649 C 6.5185104,9.3076286 6.7552983,8.6332595 7.1484376,8.0006384 7.3712423,7.6421118 7.5521087,7.4134119 7.8870861,7.0666404 8.3838916,6.5523433 8.9477152,6.1402245 9.5446215,5.8550887 11.276761,5.0276637 13.507519,5.1629883 15.068084,6.1901588 c 0.582456,0.3833748 1.212317,0.985917 1.601067,1.5316234 0.423215,0.5940867 0.761193,1.3798078 0.913125,2.1228038 0.06057,0.29622 0.07089,0.462029 0.08656,1.391083 l 0.01779,1.054777 0.611465,0.01879 c 0.336306,0.01034 0.69869,0.03524 0.805297,0.05535 0.672143,0.126753 1.223265,0.425762 1.703916,0.924454 0.468647,0.486237 0.743383,1.043618 0.839957,1.704093 0.05776,0.39502 0.02238,1.050014 -0.07593,1.405701 -0.297488,1.076292 -1.139864,1.913469 -2.203171,2.189576 -0.38079,0.09888 -0.776729,0.109744 -3.653503,0.100262 -2.666938,-0.0088 -2.869873,-0.01315 -3.026752,-0.06504 -0.466054,-0.15414 -0.801546,-0.484934 -0.958127,-0.944712 -0.06444,-0.189211 -0.06515,-0.220922 -0.07468,-3.338446 l -0.0096,-3.147421 -1.122097,1.120484 -1.1220971,1.120484 -0.2405271,-0.231862 -0.2405271,-0.231862 1.5399653,-1.539965 1.539966,-1.539966 1.539776,1.540003 1.539777,1.540002 -0.240489,0.231825 -0.240489,0.231825 -1.123567,-1.121953 -1.123567,-1.121953 v 3.096403 3.096403 l 0.07499,0.147977 c 0.04124,0.08139 0.139789,0.205019 0.218991,0.274736 0.262341,0.230921 0.105426,0.22112 3.364211,0.210144 2.888054,-0.0097 2.900763,-0.01004 3.14436,-0.07772 0.822856,-0.228612 1.452063,-0.819957 1.733183,-1.628891 0.09817,-0.282488 0.100359,-0.300129 0.100359,-0.808534 0,-0.5087 -0.0021,-0.525917 -0.100746,-0.810191 -0.282391,-0.814116 -0.907649,-1.400395 -1.732796,-1.624772 -0.220212,-0.05988 -0.339578,-0.06783 -1.19779,-0.07982 l -0.953205,-0.01331 -0.01256,-1.365254 c -0.01171,-1.272171 -0.0172,-1.3861 -0.0805,-1.6709873 C 16.718415,9.0738063 16.361363,8.3676813 15.779832,7.701077 15.024192,6.834893 14.02505,6.2645329 12.914091,6.065169 c -0.512059,-0.09189 -1.316123,-0.09189 -1.828182,0 C 9.6568066,6.3216243 8.4299603,7.1854613 7.650506,8.4840764 7.2639956,9.1280249 7.0012739,10.038591 7.0012739,10.734248 v 0.256835 H 6.5772532 c -1.0864614,0 -1.880075,0.335014 -2.6204251,1.10618 -0.5267564,0.548682 -0.8238739,1.15106 -0.9317934,1.889126 -0.056813,0.388549 -0.022394,1.046293 0.07418,1.417551 0.3085492,1.186156 1.317819,2.19596 2.4952706,2.49659 0.394988,0.100849 0.7480274,0.121315 2.1023303,0.12187 l 1.2917197,5.3e-4 v 0.336306 0.336305 l -1.3528662,-0.0051 c -0.7440764,-0.0028 -1.4078981,-0.0098 -1.4751592,-0.01542 z"
     id="path207"
     transform="matrix(40,0,0,40,0,-960)" />
</svg>
