<?xml version="1.0" encoding="UTF-8" standalone="no"?>
<svg
   height="24px"
   viewBox="0 -960 960 960"
   width="24px"
   fill="#e3e3e3"
   version="1.1"
   id="svg240"
   sodipodi:docname="difference_26dp_E3E3E3_FILL0_wght100_GRAD0_opsz24.svg"
   inkscape:version="1.2.2 (b0a8486541, 2022-12-01)"
   xmlns:inkscape="http://www.inkscape.org/namespaces/inkscape"
   xmlns:sodipodi="http://sodipodi.sourceforge.net/DTD/sodipodi-0.dtd"
   xmlns="http://www.w3.org/2000/svg"
   xmlns:svg="http://www.w3.org/2000/svg">
  <defs
     id="defs244" />
  <sodipodi:namedview
     id="namedview242"
     pagecolor="#ffffff"
     bordercolor="#000000"
     borderopacity="0.25"
     inkscape:showpageshadow="2"
     inkscape:pageopacity="0.0"
     inkscape:pagecheckerboard="0"
     inkscape:deskcolor="#d1d1d1"
     showgrid="false"
     inkscape:zoom="32.708333"
     inkscape:cx="12.015287"
     inkscape:cy="12.030573"
     inkscape:window-width="1854"
     inkscape:window-height="1011"
     inkscape:window-x="0"
     inkscape:window-y="0"
     inkscape:window-maximized="1"
     inkscape:current-layer="svg240" />
  <path
     d="M526-546h28v-80h80v-28h-80v-80h-28v80h-80v28h80v80Zm-80 160h188v-28H446v28Zm-94 134q-26 0-43-17t-17-43v-496q0-26 17-43t43-17h274l162 162v394q0 26-17 43t-43 17H352Zm0-28h376q12 0 22-10t10-22v-380L612-840H352q-12 0-22 10t-10 22v496q0 12 10 22t22 10ZM192-92q-26 0-43-17t-17-43v-476h28v476q0 12 10 22t22 10h356v28H192Zm128-188v-560 560Z"
     id="path238" />
  <path
     style="fill:#4d4d4d;stroke-width:0.0305732"
     d="M 4.4411513,21.645428 C 4.1725745,21.587078 3.9135993,21.43909 3.7141584,21.229996 3.5037385,21.009393 3.3793429,20.745922 3.3349658,20.426862 3.3122029,20.263203 3.3019108,18.338375 3.3019108,14.244921 V 8.3006369 H 3.6378429 3.973775 l 0.00802,6.0305731 c 0.0074,5.562965 0.011985,6.03932 0.059189,6.143377 0.069275,0.15271 0.2856904,0.382209 0.4366261,0.463022 l 0.1236672,0.06621 4.5477707,0.008 4.54777,0.008 v 0.335912 0.335912 l -4.5324834,-0.0024 c -3.6922978,-0.002 -4.5678333,-0.01011 -4.7231799,-0.04386 z"
     id="path252"
     transform="matrix(40,0,0,40,0,-960)" />
  <path
     style="fill:#4d4d4d;stroke-width:0.0305732"
     d="m 8.4367285,17.644961 c -0.3898764,-0.08397 -0.7867712,-0.389177 -0.9562804,-0.73536 -0.1811724,-0.370003 -0.17238,-0.01744 -0.17238,-6.9121488 0,-6.9515327 -0.010543,-6.558257 0.1856767,-6.9264021 C 7.6102882,2.8523924 7.9082403,2.5625783 8.1177328,2.4641052 8.4498264,2.3080027 8.4140236,2.3093806 12.152952,2.3088111 l 3.485437,-5.308e-4 2.025391,2.0255632 2.025392,2.0255634 v 4.9853821 c 0,3.448572 -0.01021,5.041305 -0.03313,5.166793 -0.07367,0.403358 -0.365031,0.807753 -0.719351,0.998436 -0.341757,0.183921 -0.09042,0.175899 -5.438597,0.173592 -3.671633,-0.0016 -4.9340312,-0.01122 -5.0613605,-0.03865 z m 10.0101845,-0.68016 c 0.169217,-0.05766 0.405976,-0.275741 0.494233,-0.455247 0.05892,-0.11983 0.06029,-0.219885 0.06805,-4.967779 L 19.017096,6.6962895 17.159491,4.8382113 15.301885,2.980133 11.954114,2.988153 8.6063434,2.996173 8.4840504,3.061967 C 8.3277239,3.1460907 8.1448168,3.3289978 8.0606986,3.4853503 l -0.065794,0.122293 v 6.3898089 6.3898088 l 0.09474,0.168153 c 0.1001853,0.177818 0.3187711,0.368896 0.48224,0.421552 0.062401,0.0201 1.7696544,0.03189 4.9131154,0.03393 4.353085,0.0028 4.831406,-0.0016 4.961913,-0.04609 z"
     id="path254"
     transform="matrix(40,0,0,40,0,-960)" />
  <path
     style="fill:#4d4d4d;stroke-width:0.0305732"
     d="m 13.169845,9.3477707 -0.0081,-1.0012739 -1.001273,-0.00806 -1.001274,-0.00806 v -0.335888 -0.335888 h 1.008917 1.008917 V 6.6649682 5.6713376 h 0.336306 0.336306 v 0.9936306 0.9936305 h 0.99363 0.993631 v 0.3363058 0.3363057 h -0.993631 -0.99363 v 1.0089172 1.0089176 h -0.335888 -0.335888 z"
     id="path262"
     transform="matrix(40,0,0,40,0,-960)" />
  <path
     style="fill:#4d4d4d;stroke-width:0.0305732"
     d="m 11.159236,13.987261 v -0.336306 h 2.338853 2.338854 v 0.336306 0.336306 h -2.338854 -2.338853 z"
     id="path264"
     transform="matrix(40,0,0,40,0,-960)" />
</svg>
