<?xml version="1.0" encoding="UTF-8" standalone="no"?>
<svg
   height="24px"
   viewBox="0 -960 960 960"
   width="24px"
   fill="#e3e3e3"
   version="1.1"
   id="svg300"
   sodipodi:docname="folder.svg"
   inkscape:version="1.2.2 (b0a8486541, 2022-12-01)"
   xmlns:inkscape="http://www.inkscape.org/namespaces/inkscape"
   xmlns:sodipodi="http://sodipodi.sourceforge.net/DTD/sodipodi-0.dtd"
   xmlns="http://www.w3.org/2000/svg"
   xmlns:svg="http://www.w3.org/2000/svg">
  <defs
     id="defs304" />
  <sodipodi:namedview
     id="namedview302"
     pagecolor="#ffffff"
     bordercolor="#000000"
     borderopacity="0.25"
     inkscape:showpageshadow="2"
     inkscape:pageopacity="0.0"
     inkscape:pagecheckerboard="0"
     inkscape:deskcolor="#d1d1d1"
     showgrid="false"
     inkscape:zoom="32.708333"
     inkscape:cx="12.015287"
     inkscape:cy="12.030573"
     inkscape:window-width="1854"
     inkscape:window-height="1011"
     inkscape:window-x="0"
     inkscape:window-y="0"
     inkscape:window-maximized="1"
     inkscape:current-layer="svg300" />
  <path
     d="M192-212q-26 0-43-17t-17-43v-416q0-26 17-43t43-17h187l80 80h309q26 0 43 17t17 43v336q0 26-17 43t-43 17H192Zm0-28h576q14 0 23-9t9-23v-336q0-14-9-23t-23-9H448l-80-80H192q-14 0-23 9t-9 23v416q0 14 9 23t23 9Zm-32 0v-480 480Z"
     id="path298" />
  <path
     style="fill:#4d4d4d;stroke-width:0.0305732"
     d="M 4.5401274,18.664558 C 4.1682674,18.607745 3.8347958,18.406678 3.5997822,18.097576 3.454565,17.906579 3.3689265,17.680146 3.329908,17.384013 3.3101627,17.234154 3.3024659,15.26188 3.3082409,11.831847 L 3.3171975,6.5121019 3.3827636,6.321076 C 3.5629323,5.7961576 3.9987188,5.420512 4.5248408,5.3366113 4.6494704,5.3167367 5.6070897,5.3048344 7.0931673,5.3046896 l 2.3696004,-2.31e-4 1.0085703,1.0089172 1.008569,1.0089172 h 3.992077 c 3.58222,0 4.009126,0.00506 4.158136,0.049269 0.486084,0.1442211 0.807759,0.4492393 0.981549,0.9307243 l 0.07113,0.1970763 v 4.4636944 c 0,4.264973 -0.0025,4.47292 -0.05714,4.670945 -0.14848,0.538582 -0.616768,0.94999 -1.172858,1.030402 -0.246736,0.03568 -14.6791851,0.03583 -14.9126796,1.53e-4 z M 19.597452,17.915924 c 0.202139,-0.110258 0.347488,-0.309639 0.395968,-0.543166 0.02333,-0.112387 0.03082,-1.450521 0.02503,-4.471033 C 20.01055,8.7749057 20.00776,8.5855316 19.95327,8.4609099 19.88201,8.2979265 19.642223,8.0791442 19.482366,8.0312499 19.391276,8.0039589 18.345039,7.9949049 15.2829,7.9949049 H 11.204748 L 10.196005,6.9852084 9.1872611,5.9755123 l -2.3082802,0.00842 -2.3082803,0.00842 -0.1681528,0.09172 C 4.2026102,6.1931333 4.0568713,6.391004 4.0077357,6.6201156 3.96167,6.8349124 3.9609482,17.161722 4.0069839,17.376379 c 0.066136,0.30838 0.3134332,0.560471 0.6064379,0.618193 0.06058,0.01193 3.4189349,0.01976 7.4630112,0.01738 l 7.352866,-0.0043 z"
     id="path312"
     transform="matrix(40,0,0,40,0,-960)" />
</svg>
