<?xml version="1.0" encoding="UTF-8" standalone="no"?>
<svg
   height="24px"
   viewBox="0 -960 960 960"
   width="24px"
   fill="#e3e3e3"
   version="1.1"
   id="svg321"
   sodipodi:docname="folder_open.svg"
   inkscape:version="1.2.2 (b0a8486541, 2022-12-01)"
   xmlns:inkscape="http://www.inkscape.org/namespaces/inkscape"
   xmlns:sodipodi="http://sodipodi.sourceforge.net/DTD/sodipodi-0.dtd"
   xmlns="http://www.w3.org/2000/svg"
   xmlns:svg="http://www.w3.org/2000/svg">
  <defs
     id="defs325" />
  <sodipodi:namedview
     id="namedview323"
     pagecolor="#ffffff"
     bordercolor="#000000"
     borderopacity="0.25"
     inkscape:showpageshadow="2"
     inkscape:pageopacity="0.0"
     inkscape:pagecheckerboard="0"
     inkscape:deskcolor="#d1d1d1"
     showgrid="false"
     inkscape:zoom="32.708333"
     inkscape:cx="12.015287"
     inkscape:cy="12.030573"
     inkscape:window-width="1854"
     inkscape:window-height="1011"
     inkscape:window-x="0"
     inkscape:window-y="0"
     inkscape:window-maximized="1"
     inkscape:current-layer="svg321" />
  <path
     d="M186-212q-23 0-38.5-15.5T132-266v-422q0-23 18.5-41.5T192-748h187l80 80h309q17 0 30 7.5t21 20.5H448l-80-80H192q-14 0-23 9t-9 23v416q0 11 5.5 18t14.5 12l89-298h638l-87 290q-5 17-19.5 27.5T768-212H186Zm23-28h579l81-272H290l-81 272Zm0 0 81-272-81 272Zm-49-400v-80 80Z"
     id="path319" />
  <path
     style="fill:#4d4d4d;stroke-width:0.0305732"
     d="M 4.3938357,18.663754 C 3.8603842,18.574066 3.4226724,18.119977 3.3340636,17.564331 3.2917982,17.299294 3.2908727,6.9025476 3.3330884,6.6105956 3.4065843,6.1023195 3.8436907,5.5829896 4.3633103,5.3865799 4.5390811,5.3201407 4.554691,5.3196956 7.0012739,5.311363 l 2.4611465,-0.00838 1.0087436,1.0096561 1.008743,1.0096561 h 3.975916 c 4.387473,0 4.167247,-0.00941 4.504039,0.1923774 0.09003,0.053938 0.240383,0.1806162 0.334126,0.2815079 L 20.464431,7.97962 15.835031,7.98736 11.205631,7.9951 10.195169,6.9849755 9.1847068,5.974851 6.8777035,5.983601 4.5707006,5.992351 4.4025478,6.084071 C 4.2004392,6.1943175 4.0550383,6.3937402 4.0066562,6.6270562 3.9832993,6.739692 3.9758659,8.362542 3.981622,12.092545 l 0.00819,5.305284 0.077927,0.151417 c 0.068227,0.132571 0.3538331,0.412537 0.4208469,0.412537 0.012429,0 0.5236934,-1.678471 1.1361437,-3.729936 l 1.1135458,-3.729936 h 7.9582526 c 4.377038,0 7.958252,0.0046 7.958252,0.0102 0,0.06764 -2.212323,7.358582 -2.265641,7.466655 -0.09294,0.188377 -0.33547,0.432082 -0.539774,0.542381 -0.339033,0.183034 0.100414,0.173612 -7.941082,0.170267 -4.0524835,-0.0017 -7.4339836,-0.01413 -7.514444,-0.02766 z M 20.711852,14.652229 c 0.552141,-1.853885 1.010418,-3.394805 1.018393,-3.424267 0.01379,-0.05095 -0.340345,-0.05319 -7.238704,-0.04586 l -7.2532037,0.0077 -1.0051559,3.376118 c -0.5528358,1.856865 -1.0051559,3.394317 -1.0051559,3.416561 0,0.03343 1.2558665,0.04044 7.2399665,0.04044 h 7.239967 z"
     id="path333"
     transform="matrix(40,0,0,40,0,-960)" />
</svg>
