<?xml version="1.0" encoding="UTF-8" standalone="no"?>
<svg
   height="24px"
   viewBox="0 -960 960 960"
   width="24px"
   fill="#e3e3e3"
   version="1.1"
   id="svg342"
   sodipodi:docname="history.svg"
   inkscape:version="1.2.2 (b0a8486541, 2022-12-01)"
   xmlns:inkscape="http://www.inkscape.org/namespaces/inkscape"
   xmlns:sodipodi="http://sodipodi.sourceforge.net/DTD/sodipodi-0.dtd"
   xmlns="http://www.w3.org/2000/svg"
   xmlns:svg="http://www.w3.org/2000/svg">
  <defs
     id="defs346" />
  <sodipodi:namedview
     id="namedview344"
     pagecolor="#ffffff"
     bordercolor="#000000"
     borderopacity="0.25"
     inkscape:showpageshadow="2"
     inkscape:pageopacity="0.0"
     inkscape:pagecheckerboard="0"
     inkscape:deskcolor="#d1d1d1"
     showgrid="false"
     inkscape:zoom="32.708333"
     inkscape:cx="12.015287"
     inkscape:cy="12.030573"
     inkscape:window-width="1854"
     inkscape:window-height="1011"
     inkscape:window-x="0"
     inkscape:window-y="0"
     inkscape:window-maximized="1"
     inkscape:current-layer="svg342" />
  <path
     d="M478-172q-117 0-204-76T173-440h28q17 103 94.5 171.5T478-200q117 0 198.5-81.5T758-480q0-117-81.5-198.5T478-760q-60 0-113 24.5T270-668h96v28H222v-144h28v96q45-47 104-73.5T478-788q64 0 120 24t98 66q42 42 66 98t24 120q0 64-24 120t-66 98q-42 42-98 66t-120 24Zm133-158L467-474v-206h28v194l136 136-20 20Z"
     id="path340" />
  <path
     style="fill:#4d4d4d;stroke-width:0.0305732"
     d="M 11.159236,19.655053 C 9.8314591,19.499649 8.7433581,19.116663 7.7365978,18.450365 7.2665892,18.139302 6.9678832,17.89709 6.5316343,17.473298 5.3205777,16.296821 4.621416,14.904165 4.3555926,13.138854 l -0.019566,-0.129937 h 0.3389931 c 0.1864462,0 0.338993,0.0071 0.338993,0.01582 0,0.0087 0.02857,0.14972 0.063489,0.313376 0.3156197,1.479214 0.9912409,2.703089 2.0586866,3.72927 1.0623246,1.021258 2.228732,1.612757 3.6696747,1.860934 0.376732,0.06489 1.475502,0.09072 1.917329,0.04508 1.628174,-0.168187 3.025637,-0.836758 4.196611,-2.007733 1.110798,-1.110797 1.748122,-2.379767 1.979549,-3.94146 0.05456,-0.368182 0.05456,-1.680226 0,-2.048408 C 18.669066,9.4217968 18.033329,8.1519852 16.928787,7.0398151 15.77731,5.8803863 14.381444,5.2056147 12.773179,5.0309661 12.354891,4.9855423 11.447811,4.9919592 11.067516,5.0430323 9.5481582,5.24708 8.108976,5.9644663 6.9324841,7.1042134 6.8357962,7.1978815 6.7566879,7.2852682 6.7566879,7.298406 c 0,0.013138 0.5365605,0.023887 1.1923567,0.023887 H 9.1414013 V 7.6585987 7.9949045 H 7.3528662 5.5643312 V 6.2063694 4.4178344 h 0.3363057 0.3363058 v 1.1923567 c 0,0.6557962 0.00347,1.1923567 0.00772,1.1923567 0.00424,0 0.1177478,-0.1039535 0.2522293,-0.2310079 1.2357493,-1.1675029 2.709482,-1.9109903 4.310751,-2.1747439 0.484134,-0.079744 1.842995,-0.079308 2.323567,7.467e-4 0.830571,0.1383577 1.498059,0.352857 2.216561,0.7122984 1.556695,0.7787609 2.709655,1.9268992 3.480512,3.4659551 0.368444,0.7356183 0.600641,1.4575238 0.727695,2.2624208 0.07912,0.501245 0.07912,1.822321 0,2.323566 -0.127054,0.804897 -0.359251,1.526802 -0.727695,2.262421 -1.122678,2.241485 -3.172067,3.747866 -5.681786,4.176332 -0.278448,0.04754 -1.711097,0.08684 -1.987261,0.05452 z"
     id="path354"
     transform="matrix(40,0,0,40,0,-960)" />
  <path
     style="fill:#4d4d4d;stroke-width:0.0305732"
     d="M 13.474995,13.933594 11.678981,12.137387 V 9.5769737 7.0165605 h 0.336306 0.336305 v 2.4103614 2.4103611 l 1.701554,1.704414 1.701553,1.704414 -0.241845,0.241845 -0.241845,0.241846 z"
     id="path356"
     transform="matrix(40,0,0,40,0,-960)" />
</svg>
