<?xml version="1.0" encoding="UTF-8" standalone="no"?>
<svg
   height="40px"
   viewBox="0 -960 960 960"
   width="40px"
   fill="#e3e3e3"
   version="1.1"
   id="svg366"
   sodipodi:docname="info.svg"
   inkscape:version="1.2.2 (b0a8486541, 2022-12-01)"
   xmlns:inkscape="http://www.inkscape.org/namespaces/inkscape"
   xmlns:sodipodi="http://sodipodi.sourceforge.net/DTD/sodipodi-0.dtd"
   xmlns="http://www.w3.org/2000/svg"
   xmlns:svg="http://www.w3.org/2000/svg">
  <defs
     id="defs370" />
  <sodipodi:namedview
     id="namedview368"
     pagecolor="#ffffff"
     bordercolor="#000000"
     borderopacity="0.25"
     inkscape:showpageshadow="2"
     inkscape:pageopacity="0.0"
     inkscape:pagecheckerboard="0"
     inkscape:deskcolor="#d1d1d1"
     showgrid="false"
     inkscape:zoom="19.625"
     inkscape:cx="19.974522"
     inkscape:cy="20.050955"
     inkscape:window-width="1854"
     inkscape:window-height="1011"
     inkscape:window-x="0"
     inkscape:window-y="0"
     inkscape:window-maximized="1"
     inkscape:current-layer="svg366" />
  <path
     d="M464-298h35v-222h-35v222Zm15.89-278q9.61 0 16.36-6.34 6.75-6.33 6.75-16.48 0-11.13-6.62-17.15-6.62-6.03-16.19-6.03-11.69 0-17.44 5.85-5.75 5.85-5.75 16.47 0 10.78 6.64 17.23 6.65 6.45 16.25 6.45Zm.09 460q-76.09 0-141.75-28.91-65.67-28.91-115-78.19-49.34-49.28-78.28-115.07Q116-403.96 116-480.33q0-75.26 28.97-141.54 28.97-66.27 78.53-115.88 49.57-49.61 115-77.93Q403.92-844 479.88-844q75.33 0 141.91 28.29 66.58 28.28 115.97 77.84 49.39 49.57 77.81 116.09Q844-555.26 844-479.9q0 76.37-28.29 141.53-28.28 65.16-77.83 114.58-49.55 49.41-116.05 78.6Q555.33-116 479.98-116Zm.52-35q136.01 0 232.26-96.24Q809-343.49 809-480.5q0-136.01-96.06-232.26Q616.89-809 480-809q-136.51 0-232.76 96.06Q151-616.89 151-480q0 136.51 96.24 232.76Q343.49-151 480.5-151Zm-.5-329Z"
     id="path364" />
  <path
     style="fill:#4d4d4d;stroke-width:0.0509554"
     d="M 18.522293,35.079636 C 15.650584,34.784876 13.035964,33.719111 10.649682,31.870623 10.013662,31.377942 8.6824951,30.049066 8.1505528,29.375796 5.2674917,25.726755 4.2226764,21.171145 5.228935,16.636943 c 0.4451482,-2.005839 1.50061,-4.20465 2.8529917,-5.94355 1.9266793,-2.4773362 4.7383083,-4.3992639 7.6704003,-5.2432085 2.650339,-0.7628477 5.658794,-0.782305 8.30576,-0.053718 4.678429,1.2877551 8.395144,4.7064215 10.150045,9.3361005 1.206747,3.183565 1.241398,7.08658 0.09142,10.29772 -1.87359,5.231736 -6.583425,9.112133 -12.082994,9.955088 -0.788822,0.120908 -2.907891,0.174977 -3.694268,0.09426 z m 3.643312,-1.497661 c 0.764297,-0.117292 1.982976,-0.424649 2.624204,-0.661837 1.205793,-0.446019 2.625076,-1.2517 3.694267,-2.097116 1.101803,-0.871201 2.536016,-2.479857 3.272036,-3.670012 1.713917,-2.771424 2.340231,-6.187397 1.767724,-9.641322 -0.43807,-2.642874 -1.656144,-4.998049 -3.638044,-7.034251 C 28.646935,9.2046371 27.45841,8.3225232 26.063694,7.6407079 25.103352,7.1712387 24.484753,6.9427152 23.515924,6.6995081 22.199756,6.3691081 21.732518,6.3184713 20,6.3184713 c -1.737291,0 -2.209889,0.051422 -3.519244,0.382916 -0.993204,0.2514532 -1.600979,0.4765534 -2.554786,0.94621 -1.413121,0.6958238 -2.573379,1.5575302 -3.815633,2.8338117 -2.6809724,2.754412 -3.9584904,6.095063 -3.8251788,10.002667 0.1211981,3.552535 1.3573747,6.482632 3.8027668,9.013658 2.226863,2.304846 4.795852,3.648777 7.797425,4.079115 0.820014,0.117567 0.851067,0.118995 2.318472,0.106638 1.009732,-0.0085 1.531712,-0.03551 1.961783,-0.101512 z"
     id="path378"
     transform="matrix(24,0,0,24,0,-960)" />
  <path
     style="fill:#4d4d4d;stroke-width:0.0509554"
     d="m 19.588352,15.877894 c -0.372467,-0.169166 -0.572455,-0.568423 -0.510637,-1.019438 0.06802,-0.496257 0.382051,-0.745658 0.931543,-0.739823 0.52381,0.0056 0.84397,0.28695 0.914847,0.804057 0.07721,0.563331 -0.350913,1.049594 -0.924105,1.049594 -0.112102,0 -0.297344,-0.04247 -0.411648,-0.09439 z"
     id="path380"
     transform="matrix(24,0,0,24,0,-960)" />
  <path
     style="fill:#4d4d4d;stroke-width:0.0509554"
     d="m 19.363057,22.955414 v -4.585987 h 0.713376 0.713376 v 4.585987 4.585987 h -0.713376 -0.713376 z"
     id="path382"
     transform="matrix(24,0,0,24,0,-960)" />
</svg>
