<?xml version="1.0" encoding="UTF-8" standalone="no"?>
<svg
   height="24px"
   viewBox="0 -960 960 960"
   width="24px"
   fill="#e3e3e3"
   version="1.1"
   id="svg393"
   sodipodi:docname="input.svg"
   inkscape:version="1.2.2 (b0a8486541, 2022-12-01)"
   xmlns:inkscape="http://www.inkscape.org/namespaces/inkscape"
   xmlns:sodipodi="http://sodipodi.sourceforge.net/DTD/sodipodi-0.dtd"
   xmlns="http://www.w3.org/2000/svg"
   xmlns:svg="http://www.w3.org/2000/svg">
  <defs
     id="defs397" />
  <sodipodi:namedview
     id="namedview395"
     pagecolor="#ffffff"
     bordercolor="#000000"
     borderopacity="0.25"
     inkscape:showpageshadow="2"
     inkscape:pageopacity="0.0"
     inkscape:pagecheckerboard="0"
     inkscape:deskcolor="#d1d1d1"
     showgrid="false"
     inkscape:zoom="32.708333"
     inkscape:cx="12.015287"
     inkscape:cy="12.030573"
     inkscape:window-width="1854"
     inkscape:window-height="1011"
     inkscape:window-x="0"
     inkscape:window-y="0"
     inkscape:window-maximized="1"
     inkscape:current-layer="svg393" />
  <path
     d="M192-212q-26 0-43-17t-17-43v-74h28v74q0 12 10 22t22 10h576q12 0 22-10t10-22v-416q0-12-10-22t-22-10H192q-12 0-22 10t-10 22v74h-28v-74q0-26 17-43t43-17h576q26 0 43 17t17 43v416q0 26-17 43t-43 17H192Zm288-144-20-20 90-90H132v-28h418l-90-90 20-20 124 124-124 124Z"
     id="path391" />
  <path
     style="fill:#4d4d4d;stroke-width:0.0305732"
     d="M 4.5401274,18.664558 C 4.0453527,18.588966 3.5923531,18.231569 3.4235246,17.783607 3.3238067,17.51902 3.3031555,17.263763 3.3025164,16.287898 l -6.056e-4,-0.924841 h 0.3344119 0.3344118 l 0.00954,1.001274 c 0.00931,0.97694 0.011267,1.004787 0.080728,1.145822 0.097261,0.197483 0.3388969,0.408822 0.5335073,0.466615 0.1367172,0.0406 1.0289192,0.04616 7.4054932,0.04616 6.376574,0 7.268776,-0.0056 7.405493,-0.04616 0.194611,-0.05779 0.436247,-0.269132 0.533508,-0.466615 l 0.07119,-0.144548 V 12 6.6343949 L 19.939001,6.4898468 C 19.84174,6.2923644 19.600104,6.0810253 19.405493,6.0232323 19.268776,5.9826316 18.376574,5.9770701 12,5.9770701 c -6.3765741,0 -7.2687761,0.00556 -7.4054933,0.046162 -0.1946104,0.057793 -0.4362465,0.2691321 -0.5335073,0.4666145 -0.06946,0.1410351 -0.071422,0.1688826 -0.080728,1.145822 l -0.00954,1.0012739 H 3.6336194 3.2965042 L 3.3088756,7.5745223 C 3.3202253,6.5998496 3.3264951,6.4963246 3.3847884,6.321076 3.5579649,5.8004515 3.9977773,5.4206621 4.5248408,5.3366113 c 0.2760265,-0.044018 14.6742922,-0.044018 14.9503182,0 0.543061,0.086602 1.004384,0.4993584 1.150506,1.0293852 0.05481,0.1988023 0.05714,0.4284989 0.05714,5.6340035 0,5.205505 -0.0023,5.435201 -0.05714,5.634003 -0.14848,0.538581 -0.616768,0.94999 -1.172858,1.030402 -0.246736,0.03568 -14.6791851,0.03583 -14.9126796,1.53e-4 z"
     id="path405"
     transform="matrix(40,0,0,40,0,-960)" />
  <path
     style="fill:#4d4d4d;stroke-width:0.0305732"
     d="m 11.755472,14.843371 -0.24377,-0.245209 1.130618,-1.130928 1.130618,-1.130928 H 8.5374246 3.3019108 V 12 11.663694 H 8.5374246 13.772938 L 12.642076,10.532522 11.511214,9.4013506 11.75578,9.1567853 12.000345,8.91222 l 1.543701,1.543928 1.543701,1.543928 -1.544252,1.544252 -1.544252,1.544252 z"
     id="path407"
     transform="matrix(40,0,0,40,0,-960)" />
</svg>
