<?xml version="1.0" encoding="UTF-8" standalone="no"?>
<svg
   height="24px"
   viewBox="0 -960 960 960"
   width="24px"
   fill="#e3e3e3"
   version="1.1"
   id="svg417"
   sodipodi:docname="keyboard.svg"
   inkscape:version="1.2.2 (b0a8486541, 2022-12-01)"
   xmlns:inkscape="http://www.inkscape.org/namespaces/inkscape"
   xmlns:sodipodi="http://sodipodi.sourceforge.net/DTD/sodipodi-0.dtd"
   xmlns="http://www.w3.org/2000/svg"
   xmlns:svg="http://www.w3.org/2000/svg">
  <defs
     id="defs421" />
  <sodipodi:namedview
     id="namedview419"
     pagecolor="#ffffff"
     bordercolor="#000000"
     borderopacity="0.25"
     inkscape:showpageshadow="2"
     inkscape:pageopacity="0.0"
     inkscape:pagecheckerboard="0"
     inkscape:deskcolor="#d1d1d1"
     showgrid="false"
     inkscape:zoom="32.708333"
     inkscape:cx="12.015287"
     inkscape:cy="12.030573"
     inkscape:window-width="1854"
     inkscape:window-height="1011"
     inkscape:window-x="0"
     inkscape:window-y="0"
     inkscape:window-maximized="1"
     inkscape:current-layer="svg417" />
  <path
     d="M192-252q-26 0-43-17t-17-43v-336q0-26 17-43t43-17h576q26 0 43 17t17 43v336q0 26-17 43t-43 17H192Zm0-28h576q12 0 22-10t10-22v-336q0-12-10-22t-22-10H192q-12 0-22 10t-10 22v336q0 12 10 22t22 10Zm140-52h296v-56H332v56ZM212-452h56v-56h-56v56Zm120 0h56v-56h-56v56Zm120 0h56v-56h-56v56Zm120 0h56v-56h-56v56Zm120 0h56v-56h-56v56ZM212-572h56v-56h-56v56Zm120 0h56v-56h-56v56Zm120 0h56v-56h-56v56Zm120 0h56v-56h-56v56Zm120 0h56v-56h-56v56ZM160-280v-400 400Z"
     id="path415" />
  <path
     style="fill:#4d4d4d;stroke-width:0.0305732"
     d="M 4.5248408,17.666328 C 4.3770538,17.642479 4.0802297,17.524565 3.9592357,17.44164 3.6195185,17.208809 3.3851275,16.830503 3.3333391,16.431446 c -0.039613,-0.305242 -0.039613,-8.5576499 0,-8.8628918 C 3.4026058,7.0348177 3.7620984,6.5917896 4.2802548,6.4016036 L 4.4789809,6.3286624 H 12 c 7.260822,0 7.526837,0.00197 7.689172,0.057056 0.520846,0.1767277 0.907665,0.6448086 0.977489,1.182836 0.03961,0.3052419 0.03961,8.5576496 0,8.8628916 -0.06802,0.524104 -0.432628,0.979166 -0.93979,1.172926 l -0.175279,0.06697 -7.475159,0.0037 c -4.1113375,0.002 -7.509554,-0.0019 -7.5515922,-0.0087 z M 19.490446,16.941322 c 0.190071,-0.08964 0.370391,-0.266772 0.4551,-0.447054 l 0.06464,-0.13758 V 12 7.6433121 L 19.945546,7.5057325 C 19.860837,7.32545 19.680517,7.1483179 19.490446,7.0586782 L 19.33758,6.9865846 H 12 4.6624204 L 4.5095541,7.0586782 C 4.3194832,7.1483179 4.139163,7.32545 4.0544535,7.5057325 L 3.9898089,7.6433121 V 12 16.356688 l 0.064645,0.13758 c 0.084709,0.180282 0.2650297,0.357414 0.4551006,0.447054 l 0.1528663,0.07209 H 12 19.33758 Z"
     id="path429"
     transform="matrix(40,0,0,40,0,-960)" />
  <path
     style="fill:#4d4d4d;stroke-width:0.0305732"
     d="M 11.312102,8.988535 V 8.3006369 H 12 12.687898 V 8.988535 9.6764331 H 12 11.312102 Z"
     id="path431"
     transform="matrix(40,0,0,40,0,-960)" />
  <path
     style="fill:#4d4d4d;stroke-width:0.0305732"
     d="M 8.3159236,8.988535 V 8.3006369 h 0.6878981 0.687898 V 8.988535 9.6764331 H 9.0038217 8.3159236 Z"
     id="path433"
     transform="matrix(40,0,0,40,0,-960)" />
  <path
     style="fill:#4d4d4d;stroke-width:0.0305732"
     d="M 5.3197452,8.988535 V 8.3006369 H 6.0076433 6.6955414 V 8.988535 9.6764331 H 6.0076433 5.3197452 Z"
     id="path435"
     transform="matrix(40,0,0,40,0,-960)" />
  <path
     style="fill:#4d4d4d;stroke-width:0.0305732"
     d="M 5.3197452,12 V 11.327389 H 6.0076433 6.6955414 V 12 12.672611 H 6.0076433 5.3197452 Z"
     id="path437"
     transform="matrix(40,0,0,40,0,-960)" />
  <path
     style="fill:#4d4d4d;stroke-width:0.0305732"
     d="m 8.3159236,12 v -0.672611 h 0.6878981 0.687898 V 12 12.672611 H 9.0038217 8.3159236 Z"
     id="path439"
     transform="matrix(40,0,0,40,0,-960)" />
  <path
     style="fill:#4d4d4d;stroke-width:0.0305732"
     d="M 11.312102,12 V 11.327389 H 12 12.687898 V 12 12.672611 H 12 11.312102 Z"
     id="path441"
     transform="matrix(40,0,0,40,0,-960)" />
  <path
     style="fill:#4d4d4d;stroke-width:0.0305732"
     d="m 14.30828,12 v -0.672611 h 0.687898 0.687898 V 12 12.672611 H 14.996178 14.30828 Z"
     id="path443"
     transform="matrix(40,0,0,40,0,-960)" />
  <path
     style="fill:#4d4d4d;stroke-width:0.0305732"
     d="M 14.30828,8.988535 V 8.3006369 h 0.687898 0.687898 V 8.988535 9.6764331 H 14.996178 14.30828 Z"
     id="path445"
     transform="matrix(40,0,0,40,0,-960)" />
  <path
     style="fill:#4d4d4d;stroke-width:0.0305732"
     d="M 17.304459,8.988535 V 8.3006369 h 0.687898 0.687898 V 8.988535 9.6764331 h -0.687898 -0.687898 z"
     id="path447"
     transform="matrix(40,0,0,40,0,-960)" />
  <path
     style="fill:#4d4d4d;stroke-width:0.0305732"
     d="m 17.304459,12 v -0.672611 h 0.687898 0.687898 V 12 12.672611 h -0.687898 -0.687898 z"
     id="path449"
     transform="matrix(40,0,0,40,0,-960)" />
  <path
     style="fill:#4d4d4d;stroke-width:0.0305732"
     d="M 8.3159236,15.011465 V 14.323567 H 12 15.684076 v 0.687898 0.687898 H 12 8.3159236 Z"
     id="path451"
     transform="matrix(40,0,0,40,0,-960)" />
</svg>
