<?xml version="1.0" encoding="UTF-8" standalone="no"?>
<svg
   height="24px"
   viewBox="0 -960 960 960"
   width="24px"
   fill="#e3e3e3"
   version="1.1"
   id="svg471"
   sodipodi:docname="logout.svg"
   inkscape:version="1.2.2 (b0a8486541, 2022-12-01)"
   xmlns:inkscape="http://www.inkscape.org/namespaces/inkscape"
   xmlns:sodipodi="http://sodipodi.sourceforge.net/DTD/sodipodi-0.dtd"
   xmlns="http://www.w3.org/2000/svg"
   xmlns:svg="http://www.w3.org/2000/svg">
  <defs
     id="defs475" />
  <sodipodi:namedview
     id="namedview473"
     pagecolor="#ffffff"
     bordercolor="#000000"
     borderopacity="0.25"
     inkscape:showpageshadow="2"
     inkscape:pageopacity="0.0"
     inkscape:pagecheckerboard="0"
     inkscape:deskcolor="#d1d1d1"
     showgrid="false"
     inkscape:zoom="32.708333"
     inkscape:cx="12.015287"
     inkscape:cy="12.030573"
     inkscape:window-width="1854"
     inkscape:window-height="1011"
     inkscape:window-x="0"
     inkscape:window-y="0"
     inkscape:window-maximized="1"
     inkscape:current-layer="svg471" />
  <path
     d="M232-172q-26 0-43-17t-17-43v-496q0-26 17-43t43-17h249v28H232q-12 0-22 10t-10 22v496q0 12 10 22t22 10h249v28H232Zm432-184-20-20 90-90H370v-28h364l-90-90 20-20 124 124-124 124Z"
     id="path469" />
  <path
     style="fill:#4d4d4d;stroke-width:0.0305732"
     d="M 5.4022465,19.640391 C 5.049023,19.557266 4.6459285,19.239009 4.4805757,18.912701 4.3038151,18.563881 4.3118897,18.89478 4.3118897,12 c 0,-6.8947798 -0.00807,-6.563881 0.168686,-6.9127013 C 4.6494226,4.7540953 5.0481562,4.4430828 5.4148824,4.3585388 5.5007254,4.3387488 6.7134687,4.3273403 8.7821656,4.326862 L 12.015287,4.3261146 V 4.6624204 4.9987261 H 8.8241158 c -3.537734,0 -3.2954471,-0.014008 -3.5373167,0.204507 C 5.218982,5.2645018 5.1264222,5.3776923 5.0811107,5.4547676 L 4.9987261,5.5949045 V 12 18.405096 l 0.082385,0.140136 c 0.045312,0.07708 0.1378713,0.190266 0.2056884,0.251535 0.2418696,0.218515 -4.173e-4,0.204507 3.5373167,0.204507 h 3.1911708 v 0.336306 0.336305 l -3.2484076,-0.0031 c -1.7910435,-0.0017 -3.3005507,-0.01534 -3.3646325,-0.03042 z"
     id="path483"
     transform="matrix(40,0,0,40,0,-960)" />
  <path
     style="fill:#4d4d4d;stroke-width:0.0305732"
     d="m 16.356385,14.82772 -0.228072,-0.229604 1.107818,-1.10813 c 0.6093,-0.609472 1.107818,-1.118379 1.107818,-1.130905 0,-0.01253 -2.043057,-0.02277 -4.540127,-0.02277 H 9.2636943 V 12 11.663694 h 4.5401277 c 2.49707,0 4.540127,-0.01025 4.540127,-0.02277 0,-0.01253 -0.498635,-0.52155 -1.108078,-1.131165 l -1.108079,-1.1083906 0.236845,-0.2368451 0.236845,-0.2368452 1.536125,1.5361249 1.536126,1.536125 -1.528472,1.528701 c -0.840659,0.840786 -1.535746,1.528701 -1.544638,1.528701 -0.0089,0 -0.118798,-0.103322 -0.244238,-0.229605 z"
     id="path485"
     transform="matrix(40,0,0,40,0,-960)" />
</svg>
