<?xml version="1.0" encoding="UTF-8" standalone="no"?>
<svg
   height="24px"
   viewBox="0 -960 960 960"
   width="24px"
   fill="#e3e3e3"
   version="1.1"
   id="svg516"
   sodipodi:docname="open_in_new.svg"
   inkscape:version="1.2.2 (b0a8486541, 2022-12-01)"
   xmlns:inkscape="http://www.inkscape.org/namespaces/inkscape"
   xmlns:sodipodi="http://sodipodi.sourceforge.net/DTD/sodipodi-0.dtd"
   xmlns="http://www.w3.org/2000/svg"
   xmlns:svg="http://www.w3.org/2000/svg">
  <defs
     id="defs520" />
  <sodipodi:namedview
     id="namedview518"
     pagecolor="#ffffff"
     bordercolor="#000000"
     borderopacity="0.25"
     inkscape:showpageshadow="2"
     inkscape:pageopacity="0.0"
     inkscape:pagecheckerboard="0"
     inkscape:deskcolor="#d1d1d1"
     showgrid="false"
     inkscape:zoom="32.708333"
     inkscape:cx="12.015287"
     inkscape:cy="12.030573"
     inkscape:window-width="1854"
     inkscape:window-height="1011"
     inkscape:window-x="0"
     inkscape:window-y="0"
     inkscape:window-maximized="1"
     inkscape:current-layer="svg516" />
  <path
     d="M232-172q-26 0-43-17t-17-43v-496q0-26 17-43t43-17h208v28H232q-12 0-22 10t-10 22v496q0 12 10 22t22 10h496q12 0 22-10t10-22v-208h28v208q0 26-17 43t-43 17H232Zm158-198-20-20 370-370H560v-28h228v228h-28v-180L390-370Z"
     id="path514" />
  <path
     style="fill:#4d4d4d;stroke-width:0.0305732"
     d="M 9.500286,14.484219 9.2634854,14.247418 13.887756,9.6230721 18.512026,4.9987261 H 16.257287 14.002548 V 4.6624204 4.3261146 h 2.843312 2.843312 V 7.1541401 9.9821656 H 19.352866 19.016561 V 7.7274264 5.4726871 l -4.624242,4.6241659 c -2.543333,2.543292 -4.6312145,4.624166 -4.639737,4.624166 -0.00852,0 -0.1220557,-0.10656 -0.252296,-0.2368 z"
     id="path528"
     transform="matrix(40,0,0,40,0,-960)" />
  <path
     style="fill:#4d4d4d;stroke-width:0.0305732"
     d="M 5.4022465,19.640391 C 5.049023,19.557266 4.6459285,19.239009 4.4805757,18.912701 4.3038151,18.563881 4.3118897,18.89478 4.3118897,12 c 0,-6.8947798 -0.00807,-6.563881 0.168686,-6.9127013 C 4.6494226,4.7540953 5.0481562,4.4430828 5.4148824,4.3585388 5.4998378,4.3389534 6.5442313,4.3273353 8.2624204,4.326862 L 10.975796,4.3261146 V 4.6624204 4.9987261 H 8.3043705 c -2.9614852,0 -2.7773971,-0.012476 -3.0175714,0.204507 C 5.218982,5.2645018 5.1264222,5.3776923 5.0811107,5.4547676 L 4.9987261,5.5949045 V 12 18.405096 l 0.082385,0.140136 c 0.045312,0.07708 0.1378713,0.190266 0.2056884,0.251535 0.2463923,0.2226 -0.3479747,0.204507 6.7179505,0.204507 h 6.371805 l 0.146147,-0.07406 c 0.155659,-0.07888 0.332744,-0.254956 0.423339,-0.420931 0.05189,-0.09507 0.05573,-0.264245 0.06352,-2.799279 l 0.0083,-2.698089 h 0.335661 0.335661 l -5.32e-4,2.667516 c -5.75e-4,2.891445 -0.0013,2.904843 -0.167837,3.233545 -0.162681,0.321036 -0.491842,0.596589 -0.84333,0.705984 -0.180325,0.05612 -0.387633,0.05783 -6.672555,0.05485 -3.695714,-0.0017 -6.5364521,-0.01484 -6.6026723,-0.03042 z"
     id="path530"
     transform="matrix(40,0,0,40,0,-960)" />
</svg>
