<?xml version="1.0" encoding="UTF-8" standalone="no"?>
<svg
   height="24px"
   viewBox="0 -960 960 960"
   width="24px"
   fill="#e3e3e3"
   version="1.1"
   id="svg540"
   sodipodi:docname="redo.svg"
   inkscape:version="1.2.2 (b0a8486541, 2022-12-01)"
   xmlns:inkscape="http://www.inkscape.org/namespaces/inkscape"
   xmlns:sodipodi="http://sodipodi.sourceforge.net/DTD/sodipodi-0.dtd"
   xmlns="http://www.w3.org/2000/svg"
   xmlns:svg="http://www.w3.org/2000/svg">
  <defs
     id="defs544" />
  <sodipodi:namedview
     id="namedview542"
     pagecolor="#ffffff"
     bordercolor="#000000"
     borderopacity="0.25"
     inkscape:showpageshadow="2"
     inkscape:pageopacity="0.0"
     inkscape:pagecheckerboard="0"
     inkscape:deskcolor="#d1d1d1"
     showgrid="false"
     inkscape:zoom="32.708333"
     inkscape:cx="12.015287"
     inkscape:cy="12.030573"
     inkscape:window-width="1854"
     inkscape:window-height="1011"
     inkscape:window-x="0"
     inkscape:window-y="0"
     inkscape:window-maximized="1"
     inkscape:current-layer="svg540" />
  <path
     d="M367-252q-73 0-124.5-52T191-429q0-73 51.5-124.5T367-605h327L571-728l20-20 157 157-157 157-20-20 123-123H367q-62 0-105 43t-43 105q0 62 43 105.5T367-280h292v28H367Z"
     id="path538" />
  <path
     style="fill:#4d4d4d;stroke-width:0.0305732"
     d="M 8.5965138,17.652689 C 8.3312102,17.621873 7.8430973,17.502153 7.6104417,17.410834 7.3098579,17.292851 6.8588675,17.040979 6.5990573,16.845988 6.2624343,16.593348 5.7456651,16.053975 5.5265902,15.72661 5.3016441,15.390471 5.069655,14.902744 4.9682952,14.552866 4.7314487,13.73531 4.7442844,12.673165 5.0004388,11.892994 5.4188683,10.618579 6.4965512,9.5368048 7.77,9.112918 8.4496953,8.8866711 8.1387852,8.8999509 13.007807,8.8891928 L 17.378672,8.8795328 15.836013,7.336647 14.293354,5.7937611 14.530195,5.55692 14.767036,5.3200788 16.723646,7.2765095 18.680255,9.23294 16.731371,11.182002 14.782487,13.131066 14.537913,12.886494 14.293339,12.64192 15.837002,11.09803 17.380665,9.5541401 13.20753,9.55467 C 10.647255,9.554995 8.9221416,9.5670008 8.743949,9.5857339 7.7345581,9.6918491 6.8132185,10.219223 6.1909372,11.047075 5.6984489,11.702257 5.4726115,12.400751 5.4726115,13.26879 c 0,0.992378 0.2779057,1.748452 0.9119942,2.481182 0.5907171,0.682611 1.4143062,1.1244 2.2973949,1.232367 0.1658027,0.02027 1.6104234,0.03167 4.0127384,0.03167 h 3.753669 v 0.336305 0.336306 l -3.814013,-0.004 C 10.536688,17.68042 8.7196415,17.66695 8.5965138,17.65265 Z"
     id="path552"
     transform="matrix(40,0,0,40,0,-960)" />
</svg>
