<?xml version="1.0" encoding="UTF-8" standalone="no"?>
<svg
   height="24px"
   viewBox="0 -960 960 960"
   width="24px"
   fill="#e3e3e3"
   version="1.1"
   id="svg588"
   sodipodi:docname="save_as.svg"
   inkscape:version="1.2.2 (b0a8486541, 2022-12-01)"
   xmlns:inkscape="http://www.inkscape.org/namespaces/inkscape"
   xmlns:sodipodi="http://sodipodi.sourceforge.net/DTD/sodipodi-0.dtd"
   xmlns="http://www.w3.org/2000/svg"
   xmlns:svg="http://www.w3.org/2000/svg">
  <defs
     id="defs592" />
  <sodipodi:namedview
     id="namedview590"
     pagecolor="#ffffff"
     bordercolor="#000000"
     borderopacity="0.25"
     inkscape:showpageshadow="2"
     inkscape:pageopacity="0.0"
     inkscape:pagecheckerboard="0"
     inkscape:deskcolor="#d1d1d1"
     showgrid="false"
     inkscape:zoom="32.708333"
     inkscape:cx="12.015287"
     inkscape:cy="12.030573"
     inkscape:window-width="1854"
     inkscape:window-height="1011"
     inkscape:window-x="0"
     inkscape:window-y="0"
     inkscape:window-maximized="1"
     inkscape:current-layer="svg588" />
  <path
     d="M232-172q-25 0-42.5-17.5T172-232v-496q0-25 17.5-42.5T232-788h426l130 130v172q-7-2-14-2h-14v-158L646-760H232q-14 0-23 9t-9 23v496q0 14 9 23t23 9h200v28H232Zm-32-588v560-560ZM532-92v-78l211-210q5-5 10-6.5t10-1.5q5 0 10.5 2t9.5 6l37 38q4 5 6 10t2 10q0 5-2 10t-6 10L610-92h-78Zm268-230-37-38 37 38ZM560-120h38l144-144-19-19-18-20-145 145v38Zm163-163-18-20 37 39-19-19ZM280-572h278v-108H280v108Zm200 256q9 0 17-2t16-7l26-25q5-8 7-16.5t2-17.5q0-28-20-48t-48-20q-28 0-48 20t-20 48q0 28 20 48t48 20Z"
     id="path586" />
  <path
     style="fill:#4d4d4d;stroke-width:0.0305732"
     d="M 7.0012739,8.3464968 V 7.0165605 h 3.4700641 3.470063 V 8.3464968 9.6764331 H 10.471338 7.0012739 Z"
     id="path600"
     transform="matrix(40,0,0,40,0,-960)" />
  <path
     style="fill:#4d4d4d;stroke-width:0.0305732"
     d="m 11.740127,16.064229 c -0.608609,-0.09095 -1.159902,-0.564016 -1.348989,-1.157565 -0.08853,-0.277891 -0.08882,-0.734592 -6.46e-4,-1.011123 0.159464,-0.500108 0.604311,-0.945585 1.102844,-1.104403 0.278859,-0.08884 0.734469,-0.08884 1.013328,0 0.474155,0.151052 0.919883,0.580631 1.083514,1.044259 0.133691,0.378794 0.118358,0.87822 -0.03775,1.229774 -0.06294,0.141746 -0.145167,0.238499 -0.422474,0.49713 -0.378568,0.353074 -0.546749,0.450128 -0.870078,0.502105 -0.222523,0.03577 -0.279322,0.03575 -0.519746,-1.83e-4 z"
     id="path602"
     transform="matrix(40,0,0,40,0,-960)" />
  <path
     style="fill:#4d4d4d;stroke-width:0.0305732"
     d="m 13.299363,20.735573 v -0.956148 l 2.682803,-2.680514 c 1.87504,-1.873441 2.717026,-2.69479 2.79647,-2.727929 0.155181,-0.06473 0.437946,-0.05964 0.589517,0.01061 0.183948,0.08526 1.157952,1.08394 1.24383,1.275342 0.08748,0.194984 0.08594,0.412296 -0.0042,0.593114 -0.04903,0.09835 -0.818771,0.88847 -2.71747,2.789442 l -2.649057,2.65223 h -0.97094 -0.97094 z m 3.468578,-1.5188 1.802141,-1.802336 -0.289174,-0.299575 c -0.159046,-0.164766 -0.371033,-0.392948 -0.471082,-0.50707 l -0.181908,-0.207495 -1.827972,1.827782 -1.827971,1.827781 v 0.461242 c 0,0.253683 0.0092,0.470414 0.02038,0.481624 0.01121,0.01121 0.23482,0.02038 0.496912,0.02038 h 0.47653 z"
     id="path604"
     transform="matrix(40,0,0,40,0,-960)" />
  <path
     style="fill:#4d4d4d;stroke-width:0.0305732"
     d="m 5.3430405,19.614516 c -0.4904466,-0.156783 -0.90529,-0.62494 -1.0010062,-1.129649 -0.043144,-0.227499 -0.043144,-12.7422351 0,-12.9697336 0.096764,-0.5102348 0.5132421,-0.976156 1.011065,-1.1310959 0.1797283,-0.055938 0.3733109,-0.057923 5.6484587,-0.057923 h 5.462353 l 1.61263,1.6128461 1.612631,1.612846 v 2.1363772 2.1363772 l -0.11465,-0.01895 c -0.06306,-0.01042 -0.214395,-0.0191 -0.336305,-0.01929 l -0.221656,-3.37e-4 V 9.8215341 7.8570809 L 17.58714,6.4279035 16.15772,4.9987261 H 10.867029 5.576337 l -0.1589172,0.079192 c -0.1946881,0.097017 -0.3294783,0.2542427 -0.3889986,0.4537458 -0.067895,0.2275753 -0.067895,12.7090971 0,12.9366721 0.05952,0.199503 0.1943105,0.356729 0.3889986,0.453746 l 0.1589172,0.07919 h 2.6080097 2.6080103 v 0.336306 0.336305 l -2.636943,-0.0016 c -2.4707681,-0.0015 -2.6479979,-0.0052 -2.8123735,-0.05773 z"
     id="path606"
     transform="matrix(40,0,0,40,0,-960)" />
</svg>
