<?xml version="1.0" encoding="UTF-8" standalone="no"?>
<svg
   height="24px"
   viewBox="0 -960 960 960"
   width="24px"
   fill="#e3e3e3"
   version="1.1"
   id="svg618"
   sodipodi:docname="settings.svg"
   inkscape:version="1.2.2 (b0a8486541, 2022-12-01)"
   xmlns:inkscape="http://www.inkscape.org/namespaces/inkscape"
   xmlns:sodipodi="http://sodipodi.sourceforge.net/DTD/sodipodi-0.dtd"
   xmlns="http://www.w3.org/2000/svg"
   xmlns:svg="http://www.w3.org/2000/svg">
  <defs
     id="defs622" />
  <sodipodi:namedview
     id="namedview620"
     pagecolor="#ffffff"
     bordercolor="#000000"
     borderopacity="0.25"
     inkscape:showpageshadow="2"
     inkscape:pageopacity="0.0"
     inkscape:pagecheckerboard="0"
     inkscape:deskcolor="#d1d1d1"
     showgrid="false"
     inkscape:zoom="32.708333"
     inkscape:cx="12.015287"
     inkscape:cy="12.030573"
     inkscape:window-width="1854"
     inkscape:window-height="1011"
     inkscape:window-x="0"
     inkscape:window-y="0"
     inkscape:window-maximized="1"
     inkscape:current-layer="svg618" />
  <path
     d="m416-132-14-112q-21-6-46.5-20T313-294l-103 44-64-112 89-67q-2-12-3.5-25t-1.5-25q0-11 1.5-23.5T235-531l-89-67 64-110 102 43q20-17 43.5-30.5T401-716l15-112h128l14 113q26 9 45.5 20.5T644-665l106-43 64 110-93 70q4 14 4.5 25.5t.5 22.5q0 10-1 21.5t-4 28.5l91 68-64 112-104-45q-21 18-42 30.5T558-245l-14 113H416Zm24-28h78l15-109q30-8 53.5-21.5T636-329l100 43 40-68-88-66q5-18 6.5-32t1.5-28q0-15-1.5-28t-6.5-30l90-68-40-68-103 43q-17-19-47.5-37T532-691l-12-109h-80l-12 108q-30 6-55 20t-51 40l-100-42-40 68 87 65q-5 13-7 29t-2 33q0 15 2 30t6 29l-86 66 40 68 99-42q24 24 49 38t57 22l13 108Zm38-232q37 0 62.5-25.5T566-480q0-37-25.5-62.5T478-568q-37 0-62.5 25.5T390-480q0 37 25.5 62.5T478-392Zm2-88Z"
     id="path616" />
  <path
     style="fill:#4d4d4d;stroke-width:0.0305732"
     d="m 11.401265,14.125769 c -0.544232,-0.137278 -1.050652,-0.523204 -1.351428,-1.029881 -0.3769428,-0.634983 -0.3792731,-1.512234 -0.0058,-2.186565 0.137414,-0.248115 0.532499,-0.650415 0.785049,-0.799385 0.328535,-0.1937915 0.574411,-0.2594307 1.027876,-0.2744021 0.317097,-0.010469 0.455866,-0.00174 0.626751,0.039404 0.766673,0.1846131 1.385104,0.7974571 1.582135,1.5678421 0.08047,0.314636 0.07996,0.801811 -0.0012,1.119055 -0.09041,0.353517 -0.279534,0.690639 -0.533565,0.951125 -0.259335,0.265925 -0.49127,0.419038 -0.824619,0.544375 -0.227832,0.08566 -0.283721,0.09394 -0.691187,0.102345 -0.307577,0.0063 -0.495581,-0.004 -0.614022,-0.03391 z"
     id="path630"
     transform="matrix(40,0,0,40,0,-960)" />
  <path
     style="fill:#4d4d4d;stroke-width:0.0305732"
     d="m 10.245696,19.36051 c -0.190599,-1.543429 -0.182116,-1.490446 -0.238621,-1.490446 -0.057061,0 -0.6545725,-0.24491 -0.9022904,-0.369834 C 8.7790242,17.33595 8.3746325,17.078924 8.0942776,16.857965 7.9471494,16.742008 7.8195583,16.647134 7.8107419,16.647134 c -0.00882,0 -0.579057,0.240764 -1.2672018,0.535032 -0.6881446,0.294267 -1.2622096,0.534597 -1.2757,0.534067 C 5.2482355,17.715462 4.3622033,16.18279 3.7849746,15.151149 L 3.6718599,14.948987 4.7810405,14.116492 5.8902211,13.283997 5.8491986,13.031807 C 5.7752128,12.576973 5.7666958,11.678471 5.8315141,11.166179 L 5.8886603,10.714522 4.8628015,9.9460378 C 4.2985791,9.5233712 3.7999411,9.1469314 3.7547169,9.1095051 L 3.6724912,9.041457 4.4623867,7.6850599 C 4.8968292,6.9390411 5.2668429,6.3318958 5.2846393,6.3358476 c 0.017796,0.00395 0.5905283,0.2427209 1.2727374,0.530598 L 7.7977568,7.3898583 8.0339104,7.2073587 C 8.3951921,6.9281592 8.8460713,6.6428197 9.2178344,6.4581111 9.5540371,6.2910704 9.934626,6.1299363 9.9929632,6.1299363 c 0.046465,0 0.047398,-0.0057 0.2389868,-1.4598456 l 0.178241,-1.3528392 1.589809,9e-7 1.589809,9e-7 0.16525,1.3528383 c 0.09089,0.7440611 0.175426,1.3808788 0.187863,1.4151505 0.01565,0.043127 0.105969,0.093807 0.293349,0.1646075 0.530408,0.2004106 1.011364,0.4757481 1.518811,0.8694887 0.133026,0.1032174 0.266513,0.205706 0.296639,0.2277527 0.04764,0.034863 0.221744,-0.027641 1.336538,-0.4798233 0.70497,-0.2859492 1.299168,-0.5241147 1.320441,-0.5292565 0.03504,-0.00847 1.637089,2.6919961 1.61194,2.7171451 -0.0055,0.00553 -0.524779,0.3964078 -1.153884,0.868615 -0.629104,0.4722067 -1.141774,0.8745727 -1.139265,0.8941447 0.0025,0.01957 0.02658,0.157772 0.0535,0.307108 0.08363,0.463947 0.04877,1.61393 -0.06238,2.058167 -0.01474,0.05891 0.121177,0.170326 1.094381,0.897063 0.611167,0.456387 1.123127,0.841139 1.13769,0.855005 0.01457,0.01387 -0.328074,0.645959 -0.762036,1.405742 -0.591658,1.035878 -0.800534,1.377185 -0.836668,1.367128 -0.02648,-0.0074 -0.610002,-0.256864 -1.296704,-0.554429 -1.08962,-0.47216 -1.255535,-0.535915 -1.303437,-0.500867 -0.03019,0.02209 -0.16312,0.124145 -0.295401,0.226793 -0.526501,0.408555 -1.058298,0.713779 -1.56636,0.899008 -0.146573,0.05344 -0.236414,0.104229 -0.249374,0.140984 -0.01114,0.0316 -0.09465,0.666229 -0.185575,1.41029 l -0.165317,1.352839 -1.590411,2.8e-5 -1.590411,2.8e-5 z m 2.730592,0.535031 c 0.0266,-0.163925 0.353648,-2.545412 0.353648,-2.575198 0,-0.01365 0.154777,-0.07573 0.343949,-0.137952 0.682414,-0.224477 1.230315,-0.530698 1.774993,-0.992042 0.150073,-0.127112 0.316626,-0.268042 0.370118,-0.313178 l 0.09726,-0.08207 1.235669,0.533037 c 0.976063,0.42105 1.243156,0.525005 1.271307,0.494804 0.05084,-0.05455 0.998999,-1.676284 0.986155,-1.686736 -0.0059,-0.0048 -0.485309,-0.363295 -1.065436,-0.796719 -0.580127,-0.433424 -1.071885,-0.803891 -1.092795,-0.82326 -0.02814,-0.02606 -0.03007,-0.0628 -0.0074,-0.141329 0.198181,-0.68775 0.219274,-1.811846 0.04734,-2.523033 -0.0404,-0.167124 -0.07111,-0.305056 -0.06824,-0.306516 0.08357,-0.04256 2.221775,-1.6822298 2.221775,-1.7037626 0,-0.031434 -0.97573,-1.7027379 -0.994082,-1.7027379 -0.0054,0 -0.585309,0.2402431 -1.288738,0.5338731 L 15.882803,8.2066001 15.71465,8.0430683 C 15.150947,7.4948579 14.136195,6.91587 13.434746,6.7422228 L 13.310257,6.7114046 13.162328,5.3506068 13.0144,3.9898089 H 12.000752 10.987104 L 10.836227,5.3383014 10.68535,6.6867938 10.410191,6.7567423 C 9.6078338,6.9607105 8.8769494,7.3836 8.2051405,8.0325838 L 8.0484975,8.1839046 6.8446309,7.6785829 C 6.1825043,7.4006559 5.6183747,7.1646946 5.5910095,7.1542248 5.5516915,7.1391816 5.4378571,7.3113744 5.0483343,7.9751095 4.7772282,8.4370664 4.555414,8.8282374 4.555414,8.8443785 c 0,0.016141 0.4743603,0.3827765 1.0541341,0.8147456 0.5797737,0.4319689 1.0609767,0.7964699 1.0693401,0.8100029 0.00836,0.01353 -0.018138,0.156051 -0.058892,0.316708 -0.1817425,0.71645 -0.1714886,1.803998 0.024041,2.549908 l 0.041594,0.158673 -1.0651086,0.816355 C 5.034713,14.759767 4.555414,15.140308 4.555414,15.156419 c 0,0.0279 0.9318363,1.632669 0.9772234,1.68293 0.011951,0.01323 0.574403,-0.21045 1.2498935,-0.497076 l 1.2281643,-0.521139 0.297837,0.261971 c 0.3762662,0.330955 0.7393587,0.580114 1.1260158,0.772688 0.3274334,0.163079 0.785446,0.340467 1.047957,0.405874 0.09022,0.02248 0.169179,0.05506 0.175467,0.0724 0.01373,0.03788 0.317599,2.546037 0.317732,2.622616 9.2e-5,0.04985 0.0677,0.0535 0.991035,0.0535 h 0.990944 z"
     id="path632"
     transform="matrix(40,0,0,40,0,-960)" />
</svg>
