<?xml version="1.0" encoding="UTF-8" standalone="no"?>
<svg
   height="24px"
   viewBox="0 -960 960 960"
   width="24px"
   fill="#e3e3e3"
   version="1.1"
   id="svg663"
   sodipodi:docname="sync.svg"
   inkscape:version="1.2.2 (b0a8486541, 2022-12-01)"
   xmlns:inkscape="http://www.inkscape.org/namespaces/inkscape"
   xmlns:sodipodi="http://sodipodi.sourceforge.net/DTD/sodipodi-0.dtd"
   xmlns="http://www.w3.org/2000/svg"
   xmlns:svg="http://www.w3.org/2000/svg">
  <defs
     id="defs667" />
  <sodipodi:namedview
     id="namedview665"
     pagecolor="#ffffff"
     bordercolor="#000000"
     borderopacity="0.25"
     inkscape:showpageshadow="2"
     inkscape:pageopacity="0.0"
     inkscape:pagecheckerboard="0"
     inkscape:deskcolor="#d1d1d1"
     showgrid="false"
     inkscape:zoom="32.708333"
     inkscape:cx="12.015287"
     inkscape:cy="12.030573"
     inkscape:window-width="1854"
     inkscape:window-height="1011"
     inkscape:window-x="0"
     inkscape:window-y="0"
     inkscape:window-maximized="1"
     inkscape:current-layer="svg663" />
  <path
     d="M194-194v-28h128l-50-50q-45-45-65.5-97.5T186-476q0-92 51.5-167.5T374-754v30q-73 32-116.5 99.5T214-476q0 50 19 97t59 87l50 50v-128h28v176H194Zm392-12v-30q73-32 116.5-99.5T746-484q0-50-19-97t-59-87l-50-50v128h-28v-176h176v28H638l50 50q45 45 65.5 97.5T774-484q0 92-51.5 167.5T586-206Z"
     id="path661" />
  <path
     style="fill:#4d4d4d;stroke-width:0.0305732"
     d="m 4.8611465,18.787261 v -0.336306 h 1.6115568 1.611557 L 7.2112564,17.571975 C 6.7311043,17.088535 6.2397765,16.564365 6.119417,16.407153 5.5227797,15.627831 5.1232593,14.788863 4.8796991,13.803822 4.7306529,13.201027 4.677707,12.748571 4.677707,12.077672 c 0,-1.202667 0.2189222,-2.1625456 0.7324398,-3.21143 0.7496841,-1.5312658 1.9065571,-2.7003817 3.425522,-3.4617732 0.2438216,-0.1222172 0.4536306,-0.2222334 0.466242,-0.2222582 0.012612,-2.47e-5 0.02293,0.1619891 0.02293,0.3600307 V 5.902317 L 9.1317193,5.9864498 C 8.4188732,6.2969993 7.5299215,6.9819218 6.9670161,7.6543179 6.1031524,8.6862118 5.5640666,9.8982081 5.3971626,11.183732 c -0.054124,0.416872 -0.061825,1.293304 -0.014701,1.673121 0.1115731,0.899281 0.4208523,1.803959 0.8664019,2.534329 0.3285379,0.538557 0.5984109,0.857831 1.4621819,1.729837 l 0.8479662,0.856051 7.49e-4,-1.612739 7.494e-4,-1.612739 H 8.8968153 9.233121 v 2.185988 2.185987 H 7.0471338 4.8611465 Z"
     id="path675"
     transform="matrix(40,0,0,40,0,-960)" />
  <path
     style="fill:#4d4d4d;stroke-width:0.0305732"
     d="m 14.675981,18.458599 8.22e-4,-0.359236 0.198613,-0.08873 c 0.731474,-0.326779 1.595439,-0.993484 2.157568,-1.664953 0.860288,-1.027623 1.404223,-2.250448 1.569946,-3.529414 0.05402,-0.416923 0.06168,-1.293732 0.01461,-1.673121 C 18.505966,10.243866 18.196687,9.3391876 17.751137,8.6088183 17.422599,8.0702611 17.152726,7.7509873 16.288955,6.8789809 l -0.847966,-0.856051 -7.49e-4,1.6127389 -7.5e-4,1.6127388 H 15.103185 14.766879 V 7.0624204 4.8764331 h 2.185987 2.185988 v 0.3360331 0.336033 l -1.591926,0.00792 -1.591926,0.00792 0.78366,0.7949045 c 1.096509,1.1122436 1.417162,1.5215699 1.832182,2.3388535 0.243923,0.4803491 0.409301,0.9312516 0.549457,1.4980888 0.149136,0.603157 0.201992,1.055172 0.201992,1.727389 0,1.192181 -0.223926,2.172847 -0.733017,3.210191 -0.753567,1.535499 -1.906133,2.700459 -3.424945,3.461773 -0.243821,0.122218 -0.45363,0.222234 -0.466242,0.222258 -0.01261,2.5e-5 -0.02256,-0.161611 -0.02211,-0.35919 z"
     id="path677"
     transform="matrix(40,0,0,40,0,-960)" />
</svg>
