<?xml version="1.0" encoding="UTF-8" standalone="no"?>
<svg
   height="24px"
   viewBox="0 -960 960 960"
   width="24px"
   fill="#e3e3e3"
   version="1.1"
   id="svg687"
   sodipodi:docname="task_alt.svg"
   inkscape:version="1.2.2 (b0a8486541, 2022-12-01)"
   xmlns:inkscape="http://www.inkscape.org/namespaces/inkscape"
   xmlns:sodipodi="http://sodipodi.sourceforge.net/DTD/sodipodi-0.dtd"
   xmlns="http://www.w3.org/2000/svg"
   xmlns:svg="http://www.w3.org/2000/svg">
  <defs
     id="defs691" />
  <sodipodi:namedview
     id="namedview689"
     pagecolor="#ffffff"
     bordercolor="#000000"
     borderopacity="0.25"
     inkscape:showpageshadow="2"
     inkscape:pageopacity="0.0"
     inkscape:pagecheckerboard="0"
     inkscape:deskcolor="#d1d1d1"
     showgrid="false"
     inkscape:zoom="32.708333"
     inkscape:cx="12.015287"
     inkscape:cy="12.030573"
     inkscape:window-width="1854"
     inkscape:window-height="1011"
     inkscape:window-x="0"
     inkscape:window-y="0"
     inkscape:window-maximized="1"
     inkscape:current-layer="svg687" />
  <path
     d="M480.17-132q-72.17 0-135.73-27.39-63.56-27.39-110.57-74.35-47.02-46.96-74.44-110.43Q132-407.65 132-479.83q0-72.17 27.4-135.73 27.41-63.56 74.39-110.57 46.98-47.02 110.49-74.44Q407.79-828 480-828q60.33 0 114.17 19Q648-790 692-756l-20 21q-40-31-88.78-48-48.77-17-103.22-17-133 0-226.5 93.5T160-480q0 133 93.5 226.5T480-160q133 0 226.5-93.5T800-480q0-26-4-50.79T784-579l22-23q11 29 16.5 59.4 5.5 30.41 5.5 62.6 0 72.21-27.39 135.72-27.39 63.51-74.35 110.49-46.96 46.98-110.43 74.39Q552.35-132 480.17-132ZM422-332 288-466l20-20 114 114 386-386 20 20-406 406Z"
     id="path685" />
  <path
     style="fill:#4d4d4d;stroke-width:0.0305732"
     d="m 8.8734728,14.00978 -1.658801,-1.659011 0.2452326,-0.243794 0.2452326,-0.243795 1.4289216,1.428922 1.4289214,1.428922 4.822864,-4.8227911 4.822863,-4.8227908 0.236907,0.2369072 0.236907,0.2369072 -5.059697,5.0597665 c -2.782833,2.782872 -5.066639,5.059767 -5.075124,5.059767 -0.0085,0 -0.7618867,-0.746555 -1.6742272,-1.65901 z"
     id="path699"
     transform="matrix(40,0,0,40,0,-960)" />
  <path
     style="fill:#4d4d4d;stroke-width:0.0305732"
     d="M 11.174522,20.650904 C 8.2155831,20.352198 5.6253663,18.596966 4.2877559,15.984162 3.9399495,15.304779 3.7432898,14.793927 3.5767306,14.137171 3.1318496,12.38297 3.260989,10.423449 3.9294029,8.7858313 4.8931545,6.4246349 6.7356076,4.6569125 9.1261146,3.7999006 10.558308,3.2864501 12.259426,3.1783025 13.819108,3.5015462 c 1.122838,0.2327078 2.342656,0.7811055 3.309356,1.487798 L 17.273489,5.0953624 17.039082,5.3514858 16.804675,5.6076091 16.664758,5.5057917 C 15.751236,4.8410234 14.652467,4.3530608 13.605096,4.1469976 13.083746,4.0444255 12.857392,4.0199621 12.244586,3.9999587 10.107434,3.9301971 8.2550064,4.5923319 6.6949058,5.9836455 5.4657121,7.0798529 4.6260719,8.425698 4.2494077,9.9034933 4.103032,10.477781 4.0392017,10.900978 4.0058231,11.518471 3.8936313,13.593983 4.46402,15.428131 5.7053348,16.983439 5.9915753,17.342085 6.6789337,18.024608 7.0498633,18.31851 8.4836307,19.454537 10.108278,20.009537 12,20.009537 c 2.300694,0 4.267242,-0.846359 5.843729,-2.515009 1.443792,-1.5282 2.158498,-3.337162 2.158761,-5.463955 9.2e-5,-0.844849 -0.0789,-1.440547 -0.289288,-2.1812662 l -0.09418,-0.3315852 0.261897,-0.2618975 0.261898,-0.2618975 0.05006,0.1195974 c 0.154096,0.3681701 0.343382,1.173875 0.430325,1.831699 0.06719,0.508402 0.06773,1.586933 0.0011,2.109554 -0.136356,1.068757 -0.401098,1.924425 -0.896415,2.89729 -1.266784,2.488123 -3.662585,4.220391 -6.417195,4.639908 -0.484049,0.07372 -1.666487,0.106338 -2.13612,0.05893 z"
     id="path701"
     transform="matrix(40,0,0,40,0,-960)" />
</svg>
