<?xml version="1.0" encoding="UTF-8" standalone="no"?>
<svg
   height="24px"
   viewBox="0 -960 960 960"
   width="24px"
   fill="#e3e3e3"
   version="1.1"
   id="svg711"
   sodipodi:docname="terminal.svg"
   inkscape:version="1.2.2 (b0a8486541, 2022-12-01)"
   xmlns:inkscape="http://www.inkscape.org/namespaces/inkscape"
   xmlns:sodipodi="http://sodipodi.sourceforge.net/DTD/sodipodi-0.dtd"
   xmlns="http://www.w3.org/2000/svg"
   xmlns:svg="http://www.w3.org/2000/svg">
  <defs
     id="defs715" />
  <sodipodi:namedview
     id="namedview713"
     pagecolor="#ffffff"
     bordercolor="#000000"
     borderopacity="0.25"
     inkscape:showpageshadow="2"
     inkscape:pageopacity="0.0"
     inkscape:pagecheckerboard="0"
     inkscape:deskcolor="#d1d1d1"
     showgrid="false"
     inkscape:zoom="32.708333"
     inkscape:cx="12.015287"
     inkscape:cy="12.030573"
     inkscape:window-width="1854"
     inkscape:window-height="1011"
     inkscape:window-x="0"
     inkscape:window-y="0"
     inkscape:window-maximized="1"
     inkscape:current-layer="svg711" />
  <path
     d="M192-212q-26 0-43-17t-17-43v-416q0-26 17-43t43-17h576q26 0 43 17t17 43v416q0 26-17 43t-43 17H192Zm0-28h576q12 0 22-10t10-22v-368H160v368q0 12 10 22t22 10Zm108-77-19-19 103-104-104-104 20-19 123 123-123 123Zm206 11v-28h188v28H506Z"
     id="path709" />
  <path
     style="fill:#4d4d4d;stroke-width:0.0305732"
     d="m 7.2610099,15.821518 -0.2125093,-0.21415 0.3201487,-0.328525 c 0.1760819,-0.180689 0.7535381,-0.76535 1.2832361,-1.299247 l 0.9630872,-0.970723 -1.2992061,-1.300791 -1.299206,-1.300791 0.2404881,-0.231833 0.240488,-0.2318333 1.5251176,1.5248893 1.5251178,1.524888 -1.5209052,1.521134 c -0.8364978,0.836623 -1.5282046,1.521133 -1.5371262,1.521133 -0.00892,0 -0.1118505,-0.09637 -0.2287307,-0.214151 z"
     id="path729"
     transform="matrix(40,0,0,40,0,-960)" />
  <path
     style="fill:#4d4d4d;stroke-width:0.0305732"
     d="M 4.5401274,18.664558 C 4.1682674,18.607745 3.8347958,18.406678 3.5997822,18.097576 3.454565,17.906579 3.3689265,17.680146 3.329908,17.384013 3.3101627,17.234154 3.3024659,15.26188 3.3082409,11.831847 L 3.3171975,6.5121019 3.3827636,6.321076 C 3.5629323,5.7961576 3.9987188,5.420512 4.5248408,5.3366113 c 0.2760265,-0.044018 14.6742922,-0.044018 14.9503182,0 0.543061,0.086602 1.004384,0.4993584 1.150506,1.0293852 0.05481,0.1988023 0.05714,0.4284989 0.05714,5.6340035 0,5.205505 -0.0023,5.435201 -0.05714,5.634003 -0.14848,0.538581 -0.616768,0.94999 -1.172858,1.030402 -0.246736,0.03568 -14.6791851,0.03583 -14.9126796,1.53e-4 z m 14.8653656,-0.68779 c 0.194611,-0.05779 0.436247,-0.269132 0.533508,-0.466615 l 0.07119,-0.144548 0.0081,-4.68535 0.0081,-4.6853505 H 12 3.9735703 l 0.00812,4.6853505 0.00812,4.68535 0.071191,0.144548 c 0.092966,0.188763 0.3398576,0.409164 0.5207154,0.464845 0.1211581,0.0373 1.2014428,0.04398 7.4050933,0.0458 6.392529,0.0019 7.281875,-0.0034 7.418685,-0.04403 z"
     id="path731"
     transform="matrix(40,0,0,40,0,-960)" />
  <path
     style="fill:#4d4d4d;stroke-width:0.0305732"
     d="M 12.657325,16.005096 V 15.66879 h 2.338853 2.338854 v 0.336306 0.336305 h -2.338854 -2.338853 z"
     id="path733"
     transform="matrix(40,0,0,40,0,-960)" />
</svg>
