<?xml version="1.0" encoding="UTF-8" standalone="no"?>
<svg
   height="24px"
   viewBox="0 -960 960 960"
   width="24px"
   fill="#e3e3e3"
   version="1.1"
   id="svg765"
   sodipodi:docname="upload.svg"
   inkscape:version="1.2.2 (b0a8486541, 2022-12-01)"
   xmlns:inkscape="http://www.inkscape.org/namespaces/inkscape"
   xmlns:sodipodi="http://sodipodi.sourceforge.net/DTD/sodipodi-0.dtd"
   xmlns="http://www.w3.org/2000/svg"
   xmlns:svg="http://www.w3.org/2000/svg">
  <defs
     id="defs769" />
  <sodipodi:namedview
     id="namedview767"
     pagecolor="#ffffff"
     bordercolor="#000000"
     borderopacity="0.25"
     inkscape:showpageshadow="2"
     inkscape:pageopacity="0.0"
     inkscape:pagecheckerboard="0"
     inkscape:deskcolor="#d1d1d1"
     showgrid="false"
     inkscape:zoom="32.708333"
     inkscape:cx="12.015287"
     inkscape:cy="12.030573"
     inkscape:window-width="1854"
     inkscape:window-height="1011"
     inkscape:window-x="0"
     inkscape:window-y="0"
     inkscape:window-maximized="1"
     inkscape:current-layer="svg765" />
  <path
     d="M466-342v-352l-90 90-20-20 124-124 124 124-20 20-90-90v352h-28ZM272-212q-26 0-43-17t-17-43v-90h28v90q0 12 10 22t22 10h416q12 0 22-10t10-22v-90h28v90q0 26-17 43t-43 17H272Z"
     id="path763" />
  <path
     style="fill:#4d4d4d;stroke-width:0.0305732"
     d="M 11.648408,11.029454 V 6.6347048 L 10.524405,7.7583997 9.400402,8.8820946 9.1641759,8.644475 8.9279498,8.4068551 10.464088,6.8709429 l 1.536138,-1.5359122 1.53626,1.5364858 1.53626,1.5364857 -0.23681,0.23681 -0.23681,0.23681 -1.123767,-1.1234586 -1.123767,-1.1234588 v 4.3947492 4.39475 H 12 11.648408 Z"
     id="path777"
     transform="matrix(40,0,0,40,0,-960)" />
  <path
     style="fill:#4d4d4d;stroke-width:0.0305732"
     d="M 6.5325566,18.663842 C 6.0221341,18.577148 5.6003902,18.237635 5.4069264,17.757683 5.3360817,17.581929 5.3350301,17.56265 5.325927,16.272611 l -0.00922,-1.307006 h 0.3378263 0.3378263 v 1.193339 c 0,1.31554 -0.00197,1.300041 0.1958825,1.541493 0.056576,0.06904 0.1766664,0.16641 0.2668674,0.21637 l 0.1640017,0.09084 H 12 17.380892 l 0.164001,-0.09084 c 0.0902,-0.04996 0.210292,-0.147326 0.266868,-0.21637 0.197852,-0.241452 0.195882,-0.225953 0.195882,-1.541493 v -1.193339 h 0.337826 0.337827 l -0.0092,1.307006 c -0.0091,1.290039 -0.01016,1.309318 -0.081,1.485072 -0.158159,0.392366 -0.489582,0.709201 -0.891163,0.851937 l -0.198726,0.07063 -5.411465,0.0043 c -2.976306,0.0024 -5.4779294,-0.007 -5.5591634,-0.02075 z"
     id="path779"
     transform="matrix(40,0,0,40,0,-960)" />
</svg>
